<svg width="32" height="32" viewBox="0 0 32 32" fill="none" xmlns="http://www.w3.org/2000/svg">
<path fill-rule="evenodd" clip-rule="evenodd" d="M15.9385 0C19.103 0 22.1964 0.938384 24.8276 2.69649C27.4588 4.45459 29.5095 6.95345 30.7205 9.87707C31.9315 12.8007 32.2484 16.0177 31.631 19.1214C31.0137 22.2251 29.4898 25.0761 27.2522 27.3137C25.0145 29.5513 22.1636 31.0752 19.0599 31.6926C15.9562 32.3099 12.7392 31.9931 9.81553 30.7821C6.89192 29.5711 4.39306 27.5203 2.63495 24.8891C0.876852 22.2579 -0.0615311 19.1645 -0.0615311 16C-0.0615311 11.7565 1.62417 7.68688 4.62476 4.68629C7.62534 1.68571 11.695 0 15.9385 0ZM12.7877 20.7015C12.6286 20.7981 12.4935 20.9296 12.3926 21.0859C12.2916 21.2422 12.2275 21.4194 12.2049 21.6042C12.1823 21.7889 12.2019 21.9764 12.2622 22.1524C12.3225 22.3285 12.422 22.4886 12.5531 22.6206C12.6842 22.7527 12.8436 22.8533 13.0192 22.9149C13.1948 22.9765 13.3821 22.9975 13.567 22.9763C13.7519 22.955 13.9296 22.8921 14.0866 22.7923C14.2437 22.6925 14.3761 22.5584 14.4739 22.4L20.1231 16.8492C20.3413 16.6203 20.463 16.3162 20.463 16C20.463 15.6838 20.3413 15.3797 20.1231 15.1508L14.5354 9.6C14.3071 9.38538 14.0056 9.2659 13.6923 9.2659C13.379 9.2659 13.0775 9.38538 12.8492 9.6C12.631 9.82889 12.5093 10.133 12.5093 10.4492C12.5093 10.7655 12.631 11.0696 12.8492 11.2985L17.5754 16L12.7877 20.7015Z" fill="#EDEBEB"/>
</svg>
