<svg width="32" height="32" viewBox="0 0 32 32" fill="none" xmlns="http://www.w3.org/2000/svg">
<path fill-rule="evenodd" clip-rule="evenodd" d="M16.0615 0C12.897 0 9.8036 0.938384 7.17241 2.69649C4.54122 4.45459 2.49046 6.95345 1.27946 9.87707C0.0684578 12.8007 -0.248398 16.0177 0.368966 19.1214C0.986329 22.2251 2.51018 25.0761 4.74783 27.3137C6.98547 29.5513 9.83639 31.0752 12.9401 31.6926C16.0438 32.3099 19.2608 31.9931 22.1845 30.7821C25.1081 29.5711 27.6069 27.5203 29.365 24.8891C31.1231 22.2579 32.0615 19.1645 32.0615 16C32.0615 11.7565 30.3758 7.68688 27.3752 4.68629C24.3747 1.68571 20.305 0 16.0615 0ZM19.2123 20.7015C19.3714 20.7981 19.5065 20.9296 19.6074 21.0859C19.7084 21.2422 19.7725 21.4194 19.7951 21.6042C19.8177 21.7889 19.7981 21.9764 19.7378 22.1524C19.6775 22.3285 19.578 22.4886 19.4469 22.6206C19.3158 22.7527 19.1564 22.8533 18.9808 22.9149C18.8052 22.9765 18.6179 22.9975 18.433 22.9763C18.2481 22.955 18.0704 22.8921 17.9134 22.7923C17.7563 22.6925 17.6239 22.5584 17.5261 22.4L11.8769 16.8492C11.6587 16.6203 11.537 16.3162 11.537 16C11.537 15.6838 11.6587 15.3797 11.8769 15.1508L17.4646 9.6C17.6929 9.38538 17.9944 9.2659 18.3077 9.2659C18.621 9.2659 18.9225 9.38538 19.1508 9.6C19.369 9.82889 19.4907 10.133 19.4907 10.4492C19.4907 10.7655 19.369 11.0696 19.1508 11.2985L14.4246 16L19.2123 20.7015Z" fill="#EDEBEB"/>
</svg>
