<svg width="473" height="482" viewBox="0 0 473 482" fill="none" xmlns="http://www.w3.org/2000/svg">
<path d="M428.838 30.5319C466.091 56.2327 479.648 115.722 469.992 164.031C460.336 212.339 427.376 249.401 397.534 276.271C367.594 303.132 340.679 319.704 308.591 338.578C276.507 357.562 239.157 378.885 194.697 379.958C150.325 381.026 98.8333 361.848 73.1819 324.362C47.4245 286.882 47.5213 231.194 60.8842 181.634C74.1456 132.078 100.673 88.6452 137.635 62.8662C174.598 37.0871 222.087 28.9713 276.313 20.8924C330.539 12.8134 391.489 4.72984 428.838 30.5319Z" fill="#F0F0F0"/>
<path d="M321.991 482C318.789 476.4 276 383.561 276 376.251C276 373.755 289.567 297.5 295.572 296.615C301.577 295.729 315.995 289.667 320.618 288C321.154 294.175 353 482 353 482H321.991Z" fill="#3B3744"/>
<path d="M223 482C223 469.787 223.432 289 223.432 289C223.432 289 300.504 291.959 307 292.275C307 329.911 253.218 452.753 253.218 482H223Z" fill="#3B3744"/>
<path d="M267 135.402C264.633 131.773 253.626 113.809 252.652 110.701C251.678 107.594 244.939 53 244.939 53L225.919 53.9388C225.919 53.9388 223.851 112.316 225.919 116.743C227.987 121.169 243.145 149.747 243.145 149.747L254.86 157L267 135.402Z" fill="white"/>
<path fill-rule="evenodd" clip-rule="evenodd" d="M243.704 49.6688L242.967 49.7594C243.704 49.6688 243.704 49.669 243.704 49.6694L243.777 50.2912C243.825 50.6974 243.895 51.2937 243.985 52.0537C244.165 53.5738 244.423 55.7489 244.735 58.3689C245.359 63.6089 246.202 70.6282 247.073 77.7458C247.945 84.8638 248.846 92.0782 249.587 97.7092C249.958 100.525 250.289 102.942 250.556 104.752C250.828 106.597 251.024 107.737 251.121 108.063C251.33 108.763 252.127 110.419 253.303 112.651C254.462 114.851 255.945 117.532 257.473 120.233C260.529 125.639 263.75 131.104 264.884 132.932C265.029 133.165 265.039 133.461 264.909 133.704L253.179 155.606C253.081 155.79 252.912 155.924 252.713 155.976C252.514 156.028 252.303 155.994 252.13 155.881L240.824 148.525C240.713 148.453 240.623 148.352 240.563 148.233L241.222 147.884C240.563 148.233 240.563 148.233 240.563 148.233L240.398 147.906C240.29 147.693 240.132 147.379 239.93 146.978C239.526 146.177 238.947 145.027 238.246 143.633C236.843 140.845 234.952 137.081 232.998 133.176C229.097 125.379 224.93 116.988 223.923 114.722C223.773 114.386 223.667 113.907 223.581 113.37C223.493 112.814 223.417 112.126 223.352 111.33C223.222 109.736 223.131 107.668 223.07 105.267C223.059 104.848 223.383 104.499 223.793 104.488C224.202 104.477 224.543 104.808 224.554 105.228C224.614 107.617 224.704 109.652 224.831 111.203C224.895 111.98 224.966 112.624 225.046 113.127C225.129 113.648 225.212 113.954 225.274 114.093C226.263 116.318 230.407 124.665 234.319 132.484C236.272 136.387 238.163 140.15 239.565 142.937C240.266 144.331 240.846 145.481 241.249 146.282C241.451 146.683 241.609 146.996 241.717 147.21L241.79 147.354L252.258 154.165L263.397 133.366C262.086 131.221 259.061 126.076 256.188 120.994C254.657 118.286 253.166 115.591 251.997 113.372C250.846 111.187 249.963 109.383 249.702 108.507C249.564 108.045 249.351 106.765 249.088 104.979C248.819 103.157 248.487 100.731 248.116 97.912C247.374 92.274 246.472 85.054 245.6 77.9346C244.729 70.8148 243.886 63.7937 243.261 58.5527C242.949 55.9322 242.691 53.7566 242.512 52.2361C242.428 51.5248 242.361 50.9568 242.313 50.5538L225.331 51.4348C225.328 51.5245 225.325 51.6225 225.321 51.7286C225.301 52.3723 225.271 53.3125 225.235 54.4978C225.163 56.8684 225.066 60.2194 224.964 64.1407C224.762 71.984 224.545 82.1056 224.484 91.2257C224.481 91.6451 224.147 91.9828 223.737 91.98C223.327 91.9771 222.997 91.6348 223 91.2154C223.061 82.0808 223.278 71.9479 223.481 64.1006C223.582 60.1765 223.679 56.823 223.751 54.4505C223.788 53.2642 223.817 52.3232 223.838 51.6786C223.848 51.3563 223.857 51.1081 223.862 50.9405L223.87 50.6858C223.87 50.6856 223.87 50.6855 224.612 50.7117L223.87 50.6858C223.884 50.2917 224.19 49.9732 224.575 49.9532L242.93 49.001C243.319 48.9808 243.657 49.2726 243.704 49.6688Z" fill="#1B3C87"/>
<path d="M351.576 1.86523L365.398 0.519741C366.099 0.451491 366.807 0.522002 367.481 0.727249C368.154 0.932496 368.781 1.26846 369.325 1.71595C369.869 2.16345 370.32 2.71372 370.651 3.33534C370.983 3.95696 371.188 4.63776 371.257 5.33886L374.383 37.4612C374.521 38.8772 374.091 40.2899 373.187 41.3886C372.284 42.4873 370.98 43.1819 369.564 43.3198L355.743 44.6653L351.576 1.86523Z" fill="#B2C3FB"/>
<path d="M94.0263 27.1233L59 52.1757L98.2012 70L356 44.8767L351.825 2L94.0263 27.1233Z" fill="#D8DFFF"/>
<path d="M283.228 130C332.251 130 321.005 267.679 320.635 287.706C312.975 297.091 233.507 294.819 223.375 288.455C220.837 266.555 230.164 130 283.228 130Z" fill="#6246EA"/>
<path fill-rule="evenodd" clip-rule="evenodd" d="M316.457 182.009C316.868 181.945 317.254 182.225 317.319 182.635C322.719 216.865 320.833 258.307 319.956 277.56C319.787 281.263 319.656 284.145 319.621 285.997C319.618 286.168 319.557 286.332 319.448 286.463C318.793 287.253 317.758 287.915 316.488 288.482C315.206 289.055 313.619 289.56 311.791 290.006C308.135 290.897 303.437 291.569 298.119 292.048C287.478 293.007 274.265 293.203 261.73 292.808C261.314 292.795 260.987 292.448 261 292.033C261.014 291.618 261.362 291.292 261.778 291.305C274.273 291.698 287.422 291.502 297.984 290.55C303.267 290.074 307.88 289.411 311.433 288.544C313.21 288.111 314.702 287.632 315.872 287.109C316.917 286.642 317.657 286.162 318.119 285.689C318.162 283.799 318.29 280.985 318.451 277.427C319.329 258.118 321.201 216.916 315.829 182.869C315.764 182.459 316.046 182.074 316.457 182.009Z" fill="#1B3C87"/>
<path fill-rule="evenodd" clip-rule="evenodd" d="M239.47 169.514C230.15 192.624 224.981 221.67 222.508 245.328C222.465 245.739 222.093 246.039 221.678 245.996C221.263 245.953 220.961 245.585 221.004 245.173C223.483 221.458 228.671 192.254 238.066 168.957C242.763 157.309 248.53 147.091 255.576 139.773C262.633 132.444 271 128 280.852 128C294.828 128 303.995 138.484 309.948 153.664C310.1 154.05 309.907 154.484 309.518 154.634C309.129 154.785 308.691 154.593 308.539 154.208C302.654 139.2 293.86 129.5 280.852 129.5C271.513 129.5 263.517 133.696 256.669 140.809C249.809 147.933 244.13 157.957 239.47 169.514Z" fill="#1B3C87"/>
<path fill-rule="evenodd" clip-rule="evenodd" d="M219.896 270C220.32 270.012 220.654 270.353 220.642 270.761C220.443 277.442 220.535 282.625 220.87 285.695C222.272 286.42 224.839 287.128 228.372 287.77C232.149 288.455 236.92 289.046 242.301 289.523C242.724 289.56 243.036 289.921 242.997 290.328C242.958 290.735 242.583 291.034 242.16 290.997C236.752 290.518 231.929 289.921 228.087 289.224C224.285 288.534 221.328 287.727 219.742 286.777C219.544 286.658 219.412 286.459 219.385 286.236C219.002 283.107 218.897 277.683 219.105 270.719C219.117 270.31 219.471 269.989 219.896 270Z" fill="#1B3C87"/>
<path fill-rule="evenodd" clip-rule="evenodd" d="M290.487 350.041C290.885 350.176 291.095 350.603 290.958 350.993C287.226 361.593 283.393 371.742 280.203 380.083C279.483 381.968 278.795 383.758 278.15 385.441C275.934 391.216 274.209 395.712 273.312 398.318L273.312 398.318C271.079 404.806 265.627 422.879 260.73 440.441C258.283 449.219 255.977 457.861 254.284 464.855C253.437 468.353 252.745 471.432 252.265 473.908C251.781 476.403 251.524 478.23 251.524 479.252C251.524 479.665 251.183 480 250.762 480C250.341 480 250 479.665 250 479.252C250 478.071 250.285 476.115 250.768 473.628C251.254 471.121 251.952 468.017 252.801 464.509C254.5 457.491 256.811 448.831 259.261 440.045C264.158 422.479 269.62 404.371 271.868 397.838C272.774 395.206 274.513 390.673 276.733 384.889C277.377 383.212 278.061 381.429 278.776 379.557C281.965 371.219 285.792 361.085 289.518 350.504C289.655 350.113 290.089 349.906 290.487 350.041Z" fill="#1B3C87"/>
<path fill-rule="evenodd" clip-rule="evenodd" d="M305.228 289C305.654 289 306 289.338 306 289.755C306 298.693 302.856 312.095 298.512 326.459C298.391 326.859 297.962 327.087 297.553 326.969C297.144 326.851 296.911 326.431 297.032 326.031C301.378 311.663 304.456 298.451 304.456 289.755C304.456 289.338 304.802 289 305.228 289Z" fill="#1B3C87"/>
<path fill-rule="evenodd" clip-rule="evenodd" d="M220.5 441C220.776 441 221 441.325 221 441.726V479.274C221 479.675 220.776 480 220.5 480C220.224 480 220 479.675 220 479.274V441.726C220 441.325 220.224 441 220.5 441Z" fill="#1B3C87"/>
<path fill-rule="evenodd" clip-rule="evenodd" d="M220.5 285C220.776 285 221 285.337 221 285.753V411.247C221 411.663 220.776 412 220.5 412C220.224 412 220 411.663 220 411.247V285.753C220 285.337 220.224 285 220.5 285Z" fill="#1B3C87"/>
<path fill-rule="evenodd" clip-rule="evenodd" d="M318.731 285C319.135 285 319.462 285.335 319.462 285.749C319.462 287.091 319.881 290.838 320.644 296.484C321.403 302.101 322.492 309.533 323.813 318.194C326.453 335.513 330.016 357.733 333.705 380.141C341.087 424.977 348.966 470.506 350.98 479.075C351.074 479.477 350.833 479.882 350.44 479.979C350.048 480.076 349.653 479.828 349.558 479.426C347.53 470.792 339.64 425.193 332.263 380.391C328.574 357.98 325.01 335.753 322.368 318.425C321.047 309.761 319.957 302.319 319.196 296.69C318.44 291.091 318 287.22 318 285.749C318 285.335 318.327 285 318.731 285Z" fill="#1B3C87"/>
<path fill-rule="evenodd" clip-rule="evenodd" d="M276.535 384.038C276.944 383.908 277.386 384.121 277.521 384.515C280.152 392.164 292.044 418.728 302.931 441.94C303.108 442.318 302.933 442.763 302.541 442.933C302.148 443.104 301.686 442.936 301.508 442.558C290.635 419.376 278.702 392.728 276.04 384.987C275.904 384.594 276.126 384.169 276.535 384.038Z" fill="#1B3C87"/>
<path fill-rule="evenodd" clip-rule="evenodd" d="M310.455 461.07C310.85 460.897 311.321 461.056 311.507 461.425C315.91 470.198 319.372 476.72 320.87 478.854C321.11 479.196 321.008 479.654 320.643 479.878C320.278 480.103 319.788 480.008 319.548 479.666C317.973 477.423 314.456 470.783 310.075 462.054C309.89 461.684 310.06 461.244 310.455 461.07Z" fill="#1B3C87"/>
<path d="M17.5 202C22.1944 202 26 198.194 26 193.5C26 188.806 22.1944 185 17.5 185C12.8056 185 9 188.806 9 193.5C9 198.194 12.8056 202 17.5 202Z" fill="#B2C3FB"/>
<path d="M177.5 215C181.642 215 185 211.418 185 207C185 202.582 181.642 199 177.5 199C173.358 199 170 202.582 170 207C170 211.418 173.358 215 177.5 215Z" fill="#FB5D64"/>
<path d="M106 390C110.418 390 114 386.418 114 382C114 377.582 110.418 374 106 374C101.582 374 98 377.582 98 382C98 386.418 101.582 390 106 390Z" fill="white"/>
<path d="M41.7838 64.0767L0 99.915L76.4847 189.088L118.268 153.25L41.7838 64.0767Z" fill="#B6BFD3"/>
<path d="M300 113.561C299.353 118.443 298.124 135.942 298.635 142.021C295.967 144.639 283.234 145.166 278 140.451C279.027 135.421 281.391 131.017 280.054 120.54C278.718 110.062 300 113.561 300 113.561Z" fill="white"/>
<path fill-rule="evenodd" clip-rule="evenodd" d="M278.905 115.42C278.518 116.183 278.341 117.129 278.495 118.325C279.509 126.039 278.536 130.589 277.511 134.433C277.401 134.846 276.979 135.091 276.569 134.98C276.159 134.869 275.916 134.444 276.027 134.031C277.016 130.319 277.951 125.982 276.971 118.527L276.97 118.525C276.782 117.062 276.989 115.793 277.536 114.715C278.08 113.642 278.934 112.812 279.953 112.174C281.967 110.914 284.721 110.349 287.405 110.125C290.111 109.9 292.848 110.015 294.899 110.184C295.926 110.269 296.787 110.367 297.392 110.445C297.694 110.484 297.933 110.517 298.097 110.541C298.179 110.553 298.242 110.563 298.285 110.57L298.335 110.578L298.348 110.58L298.353 110.58C298.353 110.58 298.354 110.58 298.231 111.345L298.354 110.58C298.765 110.647 299.049 111.033 298.993 111.449C298.665 113.895 298.184 119.548 297.851 125.371C297.518 131.208 297.338 137.134 297.595 140.153C297.615 140.386 297.529 140.615 297.362 140.778C296.691 141.428 295.619 141.906 294.399 142.249C293.155 142.599 291.661 142.835 290.056 142.939C286.852 143.147 283.118 142.838 279.93 141.801C279.526 141.67 279.304 141.233 279.435 140.826C279.565 140.419 279.998 140.196 280.402 140.327C283.367 141.291 286.9 141.591 289.957 141.393C291.482 141.294 292.867 141.072 293.986 140.757C294.912 140.497 295.597 140.189 296.032 139.878C295.811 136.636 295.998 130.86 296.317 125.282C296.62 119.981 297.046 114.789 297.374 112.005C297.318 111.997 297.259 111.989 297.197 111.982C296.612 111.906 295.774 111.81 294.773 111.728C292.767 111.563 290.122 111.454 287.532 111.669C284.921 111.886 282.464 112.427 280.764 113.49C279.925 114.015 279.294 114.652 278.905 115.42Z" fill="#1B3C87"/>
<path d="M283.5 122C296.479 122 307 108.121 307 91C307 73.8792 296.479 60 283.5 60C270.521 60 260 73.8792 260 91C260 108.121 270.521 122 283.5 122Z" fill="white"/>
<path fill-rule="evenodd" clip-rule="evenodd" d="M265.309 67.5321C261.121 73.1306 258.509 80.8984 258.509 89.5094L258.509 89.5103C258.507 91.7579 258.688 94.0018 259.052 96.2185C259.121 96.6374 258.844 97.0337 258.433 97.1038C258.022 97.1739 257.633 96.8912 257.564 96.4723C257.186 94.1712 256.997 91.842 257 89.509C257 80.5916 259.703 72.4893 264.109 66.5998C268.515 60.7096 274.657 57 281.499 57C288.342 57 294.484 60.7096 298.89 66.5998C303.295 72.4887 305.998 80.59 305.999 89.5064C306.046 95.7764 304.634 101.969 301.879 107.575C301.692 107.955 301.239 108.109 300.866 107.918C300.494 107.728 300.343 107.266 300.529 106.887C303.178 101.496 304.535 95.5434 304.49 89.5154L304.49 89.5094C304.49 80.8984 301.878 73.1306 297.69 67.5321C293.502 61.9342 287.771 58.5379 281.499 58.5379C275.228 58.5379 269.497 61.9342 265.309 67.5321Z" fill="#1B3C87"/>
<path fill-rule="evenodd" clip-rule="evenodd" d="M261.444 105.071C261.826 104.892 262.278 105.062 262.454 105.451C266.565 114.529 273.973 120.453 282.299 120.453C284.931 120.449 287.53 119.863 289.917 118.736C290.298 118.556 290.751 118.724 290.929 119.111C291.106 119.499 290.941 119.959 290.559 120.139C287.972 121.36 285.154 121.995 282.301 122L282.3 122C273.202 122 265.346 115.54 261.07 106.097C260.894 105.708 261.062 105.249 261.444 105.071Z" fill="#1B3C87"/>
<path d="M271 94C271.552 94 272 92.8807 272 91.5C272 90.1193 271.552 89 271 89C270.448 89 270 90.1193 270 91.5C270 92.8807 270.448 94 271 94Z" fill="#1B3C87"/>
<path fill-rule="evenodd" clip-rule="evenodd" d="M267.168 92C267.627 92 268 92.2846 268 92.6358C268 93.7218 267.378 95.0849 266.543 96.3467C265.696 97.6255 264.568 98.8944 263.434 99.8029C263.117 100.057 262.591 100.067 262.258 99.8244C261.925 99.5821 261.913 99.1797 262.23 98.9255C263.23 98.124 264.27 96.9634 265.058 95.7729C265.857 94.5653 266.336 93.4192 266.336 92.6358C266.336 92.2846 266.708 92 267.168 92Z" fill="#1B3C87"/>
<path fill-rule="evenodd" clip-rule="evenodd" d="M276.702 105.139C277.014 105.388 277.094 105.883 276.88 106.246C275.63 108.367 274.128 109.796 272.809 110.696C272.15 111.146 271.532 111.467 271.006 111.678C270.497 111.882 270.03 112 269.685 112C269.306 112 269 111.644 269 111.204C269 110.765 269.306 110.408 269.685 110.408C269.809 110.408 270.11 110.354 270.56 110.173C270.996 109.998 271.532 109.722 272.116 109.324C273.284 108.526 274.628 107.251 275.751 105.346C275.964 104.983 276.39 104.891 276.702 105.139Z" fill="#1B3C87"/>
<path d="M294.43 99.7911C295.444 101.193 296.467 111.319 298.636 111.982C300.804 112.645 310 94.8185 310 87.667C310 74.7371 302.523 45.7688 291.533 45.7688C287.547 45.7688 287.187 52.0526 287.187 54.4888C285.883 51.1515 279.869 44 272.266 44C259.374 44 259.579 56.3959 261.836 66.1696C259.593 64.9109 259.5 64.5438 256.766 64.5438C254.308 64.5438 253 67.8288 253 71.2662C253 79.5429 257.36 82.4988 260.757 83.9053C264.154 85.3117 273.93 85.9744 280.383 85.8124C281.173 87.6908 287.112 99.9389 294.43 99.7911Z" fill="#E45858"/>
<path fill-rule="evenodd" clip-rule="evenodd" d="M263.005 82.6633C263.053 82.2519 263.428 81.9572 263.843 82.0051C268.486 82.542 273.161 82.7697 277.835 82.6867C278.14 82.6813 278.418 82.858 278.54 83.1349C278.927 84.0093 280.604 87.4296 283.086 90.5992C284.327 92.1833 285.748 93.6779 287.286 94.7626C288.824 95.8474 290.434 96.4909 292.074 96.4587C292.319 96.4539 292.551 96.5674 292.697 96.7632C292.906 97.0451 293.065 97.4599 293.196 97.8667C293.336 98.3001 293.475 98.8275 293.614 99.4032C293.75 99.9636 293.889 100.584 294.034 101.226L294.047 101.284C294.197 101.949 294.352 102.637 294.516 103.319C294.846 104.69 295.204 105.998 295.604 106.993C295.805 107.492 296.004 107.881 296.196 108.151C296.333 108.343 296.437 108.436 296.502 108.479C296.507 108.477 296.511 108.475 296.516 108.472C296.628 108.414 296.795 108.292 297.018 108.079C297.459 107.656 298.006 106.982 298.622 106.093C298.859 105.752 299.329 105.666 299.673 105.901C300.016 106.135 300.103 106.602 299.867 106.944C299.228 107.865 298.615 108.634 298.066 109.159C297.794 109.419 297.51 109.648 297.221 109.799C296.945 109.943 296.552 110.076 296.132 109.949C295.621 109.796 295.241 109.409 294.962 109.016C294.673 108.61 294.423 108.101 294.201 107.55C293.757 106.446 293.379 105.048 293.047 103.668C292.88 102.974 292.722 102.275 292.573 101.611L292.561 101.558C292.415 100.912 292.278 100.302 292.145 99.7536C292.008 99.1883 291.88 98.7036 291.758 98.3237C291.709 98.1727 291.665 98.0502 291.626 97.9526C289.739 97.8706 287.981 97.0921 286.411 95.9855C284.71 94.7859 283.185 93.1696 281.893 91.5199C279.625 88.6237 278.011 85.5421 277.368 84.194C272.791 84.2541 268.215 84.0206 263.668 83.495C263.254 83.4471 262.957 83.0747 263.005 82.6633ZM296.444 108.503C296.444 108.503 296.445 108.503 296.449 108.502C296.445 108.503 296.444 108.503 296.444 108.503Z" fill="#1B3C87"/>
<path fill-rule="evenodd" clip-rule="evenodd" d="M261.77 44.2048C262.065 44.4891 262.078 44.9633 261.799 45.264C260.01 47.1937 259.198 50.0089 259.046 53.2443C258.894 56.4706 259.404 60.0181 260.161 63.2963C260.227 63.5844 260.121 63.8855 259.89 64.0645C259.659 64.2436 259.346 64.267 259.092 64.1244C258.727 63.9201 258.408 63.7326 258.136 63.5725C257.995 63.4894 257.866 63.4137 257.75 63.3468C257.396 63.1431 257.132 63.0046 256.868 62.9027C256.36 62.7068 255.773 62.6153 254.448 62.6153C253.617 62.6153 252.892 63.1545 252.335 64.2519C251.778 65.3491 251.469 66.8783 251.469 68.4893C251.469 74.0372 253.526 76.9569 255.777 78.6474C256.104 78.8928 256.174 79.3618 255.933 79.695C255.692 80.0282 255.232 80.0994 254.906 79.854C252.265 77.8713 250 74.4966 250 68.4893C250 66.7135 250.336 64.9311 251.03 63.5634C251.724 62.1959 252.855 61.1169 254.448 61.1169C255.817 61.1169 256.623 61.2063 257.388 61.5012C257.727 61.6321 258.042 61.797 258.375 61.9865C257.801 59.0987 257.443 56.0377 257.578 53.1726C257.738 49.7625 258.601 46.5323 260.731 44.2345C261.01 43.9338 261.475 43.9205 261.77 44.2048Z" fill="#1B3C87"/>
<path fill-rule="evenodd" clip-rule="evenodd" d="M269 41.7598C269 41.3402 269.334 41 269.745 41H270.741C274.774 41 278.341 42.8921 281.04 45.1636C282.714 46.5729 284.089 48.1585 285.06 49.5921C285.164 48.6688 285.339 47.6716 285.632 46.7374C286.248 44.7772 287.508 42.7674 290.011 42.7674C292.527 42.7674 294.797 44.1137 296.79 46.2091C297.076 46.5105 297.069 46.9915 296.773 47.2835C296.478 47.5756 296.006 47.5681 295.719 47.2668C293.879 45.3321 291.971 44.287 290.011 44.287C288.527 44.287 287.613 45.4141 287.052 47.2006C286.5 48.958 286.409 51.0395 286.409 52.2401C286.409 52.6045 286.156 52.9176 285.805 52.9863C285.453 53.055 285.104 52.8599 284.972 52.5214C284.376 50.9997 282.636 48.4781 280.09 46.3353C277.554 44.2004 274.312 42.5196 270.741 42.5196H269.745C269.334 42.5196 269 42.1795 269 41.7598Z" fill="#1B3C87"/>
<path fill-rule="evenodd" clip-rule="evenodd" d="M299.469 54.0759C299.885 53.8961 300.389 54.0466 300.594 54.412C305.87 63.8257 309 77.2875 309 85.0157C309 86.4844 308.579 88.3252 307.912 90.296C307.241 92.2781 306.306 94.4376 305.243 96.5595C305.056 96.9322 304.56 97.1014 304.136 96.9374C303.711 96.7734 303.518 96.3383 303.705 95.9655C304.748 93.8855 305.656 91.7852 306.302 89.8762C306.951 87.9559 307.32 86.2743 307.32 85.0157C307.32 77.5077 304.247 64.2692 299.086 55.063C298.882 54.6976 299.053 54.2557 299.469 54.0759Z" fill="#1B3C87"/>
<path d="M291 103C294.866 103 298 99.6421 298 95.5C298 91.3579 294.866 88 291 88C287.134 88 284 91.3579 284 95.5C284 99.6421 287.134 103 291 103Z" fill="white"/>
<path fill-rule="evenodd" clip-rule="evenodd" d="M291.775 86.9603C290.726 86.5768 289.592 86.4117 288.459 86.478C287.326 86.5443 286.226 86.8402 285.243 87.3426C284.847 87.5451 284.341 87.4256 284.111 87.0758C283.882 86.7259 284.018 86.2782 284.414 86.0758C285.616 85.4607 286.963 85.0986 288.349 85.0175C289.736 84.9363 291.125 85.1383 292.409 85.6078C293.693 86.0773 294.837 86.8017 295.753 87.7249C296.669 88.648 297.333 89.7452 297.692 90.9314C298.051 92.1176 298.097 93.3609 297.825 94.5651C297.553 95.7693 296.971 96.9021 296.125 97.8756C295.278 98.8491 294.189 99.6373 292.942 100.179C291.695 100.721 290.324 101.002 288.934 101C288.477 100.999 288.106 100.671 288.107 100.267C288.108 99.8628 288.479 99.5357 288.936 99.5363C290.072 99.5378 291.192 99.3083 292.211 98.8656C293.23 98.4229 294.12 97.7789 294.811 96.9835C295.503 96.1881 295.979 95.2626 296.201 94.2787C296.423 93.2949 296.386 92.279 296.092 91.3099C295.799 90.3407 295.257 89.4443 294.508 88.69C293.759 87.9358 292.824 87.3439 291.775 86.9603Z" fill="#1B3C87"/>
<path d="M268.675 152.706C263.537 150.342 226.575 136.77 223.366 133.512C220.157 130.255 196.166 83.5838 195.395 81.3713C196.082 80.6054 197.338 76.9746 197.263 72.8616C197.189 68.7485 194.578 67.6186 194.377 54.769C194.311 50.3675 187.931 55.0101 188.01 64.1344C180.443 63.5481 170.839 44.8599 165 53.0907C185.086 94.1358 207.232 157.349 209.095 159.235C210.959 161.121 258.978 185.658 260.053 184.986C261.127 184.315 270.885 155.392 268.675 152.706Z" fill="white"/>
<path d="M315.583 191.726C319.389 176.644 296.516 152.376 271.789 150C267.715 152.229 255.699 180.035 257.115 188.926C266.43 198.983 309.552 215.637 315.583 191.726Z" fill="#6246EA"/>
<path fill-rule="evenodd" clip-rule="evenodd" d="M268.7 148.158C269.036 148.414 269.099 148.893 268.841 149.227C266.378 152.42 262.751 159.713 259.892 167.248C258.468 171.002 257.246 174.787 256.461 178.115C255.702 181.334 255.373 184.039 255.609 185.866C257.32 187.621 260.145 189.617 263.698 191.57C264.069 191.773 264.203 192.237 263.998 192.606C263.793 192.975 263.326 193.108 262.956 192.905C259.227 190.856 256.175 188.702 254.325 186.738C254.221 186.627 254.152 186.488 254.128 186.338C253.78 184.198 254.169 181.151 254.967 177.767C255.772 174.356 257.017 170.505 258.457 166.709C261.327 159.143 265.018 151.676 267.624 148.299C267.882 147.964 268.364 147.901 268.7 148.158Z" fill="#1B3C87"/>
<path fill-rule="evenodd" clip-rule="evenodd" d="M269.918 147.321C270.066 147.653 270.007 148.102 269.787 148.325C269.429 148.686 269.121 149.147 268.879 149.683C268.73 150.013 268.431 150.099 268.211 149.875C267.991 149.65 267.934 149.2 268.083 148.869C268.394 148.18 268.791 147.587 269.251 147.123C269.472 146.9 269.77 146.989 269.918 147.321Z" fill="#1B3C87"/>
<path fill-rule="evenodd" clip-rule="evenodd" d="M284.286 151.448C284.449 151.068 284.881 150.896 285.25 151.065C294.143 155.13 301.949 161.584 307.172 168.534C312.37 175.451 315.118 183.016 313.57 189.257C311.871 196.119 307.253 199.775 301.367 201.229C295.531 202.67 288.426 201.962 281.552 200.17C281.161 200.068 280.923 199.658 281.023 199.255C281.122 198.851 281.519 198.607 281.911 198.709C288.679 200.474 295.519 201.124 301.027 199.763C306.486 198.415 310.612 195.108 312.153 188.885L312.153 188.884C313.535 183.316 311.112 176.238 306.016 169.457C300.943 162.707 293.331 156.408 284.657 152.442C284.288 152.274 284.122 151.828 284.286 151.448Z" fill="#1B3C87"/>
<path fill-rule="evenodd" clip-rule="evenodd" d="M162.567 50.3636C162.547 50.4545 162.559 50.5536 162.641 50.6674C162.653 50.6832 162.663 50.6994 162.674 50.716C163.844 52.6331 164.988 54.5816 166.106 56.5615C166.312 56.926 166.172 57.3824 165.794 57.5809C165.416 57.7794 164.943 57.6448 164.737 57.2803C163.632 55.3226 162.501 53.3961 161.344 51.5008C161.038 51.0632 160.932 50.5515 161.043 50.0491C161.155 49.5464 161.47 49.1104 161.902 48.7801C162.762 48.1222 164.126 47.8333 165.795 48.0971C169.144 48.6262 174.008 51.4 179.841 58.7934C180.101 59.1237 180.035 59.5952 179.693 59.8465C179.35 60.0978 178.861 60.0338 178.601 59.7035C172.866 52.4344 168.315 50.0183 165.544 49.5803C164.153 49.3606 163.28 49.6439 162.87 49.9576C162.667 50.1131 162.589 50.2628 162.567 50.3636Z" fill="#1B3C87"/>
<path fill-rule="evenodd" clip-rule="evenodd" d="M169.41 63.082C169.778 62.8921 170.227 63.0433 170.413 63.4197C180.637 84.1475 188.838 106.885 195 124.796C196.072 127.913 197.081 130.881 198.029 133.667C199.807 138.895 201.367 143.481 202.711 147.199C203.741 150.048 204.637 152.366 205.401 154.06C205.784 154.908 206.126 155.583 206.428 156.085C206.742 156.605 206.969 156.863 207.101 156.959C208.268 157.797 211.849 159.893 216.613 162.567C216.974 162.77 217.106 163.234 216.908 163.604C216.71 163.973 216.256 164.109 215.894 163.906C211.161 161.248 207.491 159.105 206.242 158.208L206.239 158.206C205.849 157.923 205.492 157.44 205.158 156.886C204.811 156.311 204.44 155.574 204.046 154.7C203.257 152.95 202.344 150.586 201.311 147.729C199.962 143.998 198.394 139.387 196.612 134.147C195.665 131.365 194.658 128.404 193.592 125.303C187.433 107.401 179.258 84.7418 169.08 64.1076C168.894 63.7311 169.042 63.272 169.41 63.082Z" fill="#1B3C87"/>
<path fill-rule="evenodd" clip-rule="evenodd" d="M228.086 168.4C228.277 168.032 228.723 167.893 229.083 168.088C234.964 171.289 240.997 174.525 245.732 177.028C248.099 178.28 250.14 179.347 251.675 180.135C253.232 180.934 254.223 181.423 254.527 181.542C254.907 181.691 255.097 182.127 254.951 182.516C254.805 182.905 254.379 183.099 253.999 182.95C253.61 182.797 252.536 182.264 251.015 181.483C249.472 180.691 247.425 179.62 245.055 178.367C240.315 175.861 234.277 172.622 228.391 169.419C228.032 169.224 227.895 168.768 228.086 168.4Z" fill="#1B3C87"/>
<path fill-rule="evenodd" clip-rule="evenodd" d="M192.535 50.7881C192.828 51.2329 192.951 51.8071 192.96 52.441C193.061 58.8585 193.765 62.3128 194.44 64.6608C194.611 65.2525 194.78 65.7784 194.942 66.2735C194.961 66.3312 194.979 66.3886 194.998 66.4457C195.139 66.875 195.274 67.2894 195.393 67.6954C195.667 68.6284 195.864 69.5476 195.884 70.6737C195.924 72.825 195.614 74.8457 195.203 76.4327C194.998 77.2266 194.765 77.9213 194.532 78.4766C194.396 78.8019 194.25 79.1052 194.097 79.3587C194.202 79.5926 194.362 79.9322 194.578 80.3793C194.944 81.1361 195.448 82.156 196.066 83.3884C197.302 85.8524 198.987 89.1576 200.915 92.8892C201.107 93.2615 200.963 93.7204 200.593 93.9141C200.224 94.1078 199.768 93.9629 199.575 93.5905C197.646 89.8555 195.958 86.5447 194.719 84.0735C194.099 82.8382 193.591 81.8107 193.221 81.0441C192.861 80.3003 192.608 79.7538 192.525 79.5171C192.433 79.2537 192.492 78.9606 192.678 78.7537C192.762 78.6606 192.932 78.3872 193.141 77.8866C193.341 77.4092 193.552 76.7852 193.742 76.0495C194.123 74.5775 194.412 72.6957 194.375 70.7016C194.358 69.755 194.195 68.9773 193.946 68.1262C193.834 67.7443 193.706 67.3539 193.564 66.9214C193.546 66.8645 193.527 66.8069 193.508 66.7484C193.345 66.25 193.168 65.7026 192.99 65.0834C192.273 62.588 191.553 58.9975 191.451 52.4645L191.451 52.4639C191.444 51.9888 191.35 51.7388 191.276 51.6263C191.223 51.5448 191.179 51.5257 191.108 51.5209C191.001 51.5137 190.794 51.5487 190.489 51.7245C190.191 51.896 189.846 52.1757 189.481 52.5748C188.012 54.1808 186.471 57.4559 186.51 61.885C186.514 62.3047 186.179 62.6479 185.762 62.6516C185.345 62.6553 185.004 62.3181 185.001 61.8984C184.959 57.1312 186.611 53.4686 188.37 51.5451C188.812 51.0618 189.276 50.6721 189.739 50.4051C190.195 50.1425 190.702 49.9701 191.209 50.0043C191.752 50.041 192.223 50.3123 192.535 50.7881Z" fill="#1B3C87"/>
<path fill-rule="evenodd" clip-rule="evenodd" d="M209.396 111.091C209.763 110.892 210.221 111.03 210.418 111.399C213.099 116.402 215.663 121.093 217.724 124.7C218.754 126.504 219.656 128.032 220.381 129.189C221.124 130.375 221.638 131.101 221.903 131.368L221.904 131.368C222.042 131.508 222.316 131.716 222.759 131.989C223.189 132.256 223.742 132.562 224.404 132.904C225.729 133.586 227.462 134.392 229.479 135.279C233.513 137.054 238.647 139.141 243.851 141.203C248.039 142.862 252.28 144.509 256.022 145.962C261.552 148.109 265.993 149.832 267.558 150.549C267.937 150.722 268.105 151.173 267.932 151.555C267.76 151.936 267.313 152.105 266.933 151.932C265.405 151.232 261.054 149.543 255.587 147.421C251.833 145.964 247.553 144.303 243.299 142.617C238.091 140.553 232.935 138.458 228.875 136.671C226.846 135.779 225.081 134.959 223.717 134.256C223.035 133.905 222.445 133.579 221.968 133.284C221.503 132.996 221.105 132.712 220.837 132.442M220.837 132.442C220.43 132.033 219.827 131.153 219.105 130C218.364 128.817 217.451 127.27 216.416 125.458C214.345 121.833 211.773 117.128 209.091 112.12C208.893 111.751 209.03 111.29 209.396 111.091" fill="#1B3C87"/>
<path fill-rule="evenodd" clip-rule="evenodd" d="M164.784 241.224C164.973 241.414 165.045 241.69 164.972 241.946L136.547 342.454C136.474 342.711 136.268 342.91 136.006 342.976C135.745 343.043 135.467 342.966 135.278 342.776L61.2162 268.251C61.027 268.061 60.9552 267.785 61.0278 267.529C61.1004 267.272 61.3064 267.073 61.5682 267.006L164.055 241.024C164.317 240.957 164.595 241.034 164.784 241.224ZM63.2143 268.13L135.441 340.809L163.162 242.79L63.2143 268.13Z" fill="#D8DFFF"/>
</svg>
