<?xml version="1.0" encoding="utf-8"?>
<!-- Generator: Adobe Illustrator 27.0.0, SVG Export Plug-In . SVG Version: 6.00 Build 0)  -->
<svg version="1.1" id="Layer_1" xmlns="http://www.w3.org/2000/svg" xmlns:xlink="http://www.w3.org/1999/xlink" x="0px" y="0px"
	 viewBox="0 0 644.5 285.9" style="enable-background:new 0 0 644.5 285.9;" xml:space="preserve">
<style type="text/css">
	.st0{fill:#6347EA;}
	.st1{fill:#050404;}
	.st2{fill:none;}
</style>
<g>
	<g>
		<path class="st0" d="M501.5,274.5c-32.8,0-65.6,0-98.5,0c-3.6,0-7.1,0.1-10.6-1c-11.7-3.7-18.9-11.4-20.8-23.6
			c-0.4-2.5-0.5-5-0.5-7.5c0-31.6,0-63.1,0-94.7c0-2.7,0.3-5.5,0.5-8.2c1-12.1,12.5-24,25.7-24.4c9.5-0.2,18.9-0.1,28.4-0.1
			c6.8,0,11.9,5.6,12.3,11.3c0.2,2.3,0.3,4.6,0.3,6.9c0,32.4,0,64.8,0,97.2c0,2.1,0,4.2,0.1,6.3c0.3,6.5,6.3,11.5,12,11.6
			c6.8,0.1,12.2-4.2,13.3-10.9c0.2-1.4,0.2-2.9,0.2-4.4c0-5.5-0.1-10.9,0-16.4c0.2-7.8,4.7-12.5,12.4-13.1c1.5-0.1,2.9-0.1,4.4-0.1
			c13.9,0,27.8,0,41.7,0c1.9,0,3.8,0,5.7,0.2c5.2,0.6,9.4,4.3,10.5,9.4c0.5,2.2,0.6,4.6,0.6,6.9c0.1,4.8,0,9.7,0,14.5
			c0,2.5,0.2,5,1.5,7.3c2.8,5,8.1,7.4,13.9,6.3c5.1-1,9.2-5.3,10-10.9c0.3-2.1,0.2-4.2,0.2-6.3c0-32.8,0-65.6,0-98.5
			c0-1.9-0.1-3.8,0-5.7c0.5-6.3,5-10.9,11.2-11.7c0.6-0.1,1.3-0.1,1.9-0.1c8.8,0,17.7-0.3,26.5,0.1c12.1,0.5,20.5,6.8,25.2,17.9
			c1.4,3.3,2.1,6.8,2.1,10.4c0,2.7,0,5.5,0,8.2c0,30.5,0,61,0,91.5c0,3.4-0.1,6.7-1,10c-3.3,12.3-13.9,20.9-26.6,21.4
			c-1.9,0.1-3.8,0-5.7,0C566.3,274.5,533.9,274.5,501.5,274.5z"/>
		<path class="st1" d="M565.1,81.3c0,5,0.2,9.2,0,13.4c-0.5,8.4-7.6,13.8-15.7,12.1c-4.7-1-7.8-3.9-9.5-8.3
			c-0.8-2.2-0.9-4.5-0.9-6.8c0-5.5-0.2-10.9,0-16.4c0.6-16.5-11.8-35.9-35-37.7c-16.2-1.3-33.1,8.7-38.5,27.3c-1,3.4-1.5,7-1.4,10.6
			c0.1,5.9,0,11.8,0,17.7c0,2.3-0.3,4.6-1.3,6.7c-2.4,4.9-7.4,7.8-12.9,7.2c-5.6-0.5-9.9-4.1-11.3-9.5c-0.3-1.2-0.7-2.5-0.6-3.7
			c0.1-8.8-0.4-17.7,0.6-26.5c3-26.5,23-48.7,49.1-54.4c35.8-7.8,67.7,14.8,75.6,46.5C565.1,66.9,565.3,74.5,565.1,81.3z"/>
		<path class="st0" d="M501.2,177.5c-7.2,0-14.3,0-21.5,0c-1.5,0-3,0-4.4-0.1c-6.2-0.6-10.8-5.4-11.3-11.6c-0.2-2.1-0.1-4.2-0.1-6.3
			c0-10.1,0-20.2,0-30.3c0-1.9-0.1-3.8,0.6-5.6c2.1-5.1,5.8-8.4,11.4-8.5c17-0.1,34.1-0.1,51.1,0c6.5,0,11.5,5.7,11.8,11.1
			c0.1,1.7,0.3,3.4,0.3,5c0,10.1,0,20.2,0,30.3c0,1.3,0,2.5-0.1,3.8c-0.9,7.7-5.5,12.1-13.4,12.3
			C517.6,177.6,509.4,177.5,501.2,177.5C501.2,177.5,501.2,177.5,501.2,177.5z"/>
	</g>
	<g>
		<path class="st2" d="M54.7,182.6v11.5c0,3.4-1,6.2-3.1,8.4c-2,2.1-4.6,3.2-7.7,3.2c-3.2,0-5.9-1.1-8.2-3.4c-2.3-2.3-3.4-5-3.4-8.2
			c0-3.2,1.1-5.9,3.4-8.2c2.3-2.3,5-3.4,8.2-3.4H54.7z"/>
		<path class="st2" d="M221.7,194.2v11.6h-11.2c-3.1,0-6.2-1.2-8.4-3.4c-2.3-2.3-3.4-5-3.4-8.2c0-3.2,1.1-5.9,3.4-8.2
			c2.2-2.2,5.1-3.4,8.2-3.4c3.2,0,5.9,1.1,8.1,3.4C220.6,188.3,221.7,191,221.7,194.2z"/>
		<path d="M34.2,157.9c2.9,0,5.4-1,7.5-3.1c2-2,3.1-4.5,3.1-7.3c0-2.8-1-5.3-3.1-7.3c-2.1-2.1-4.5-3.1-7.5-3.1c-2.8,0-5.3,1-7.3,3.1
			c-2.1,2-3.1,4.5-3.1,7.3c0,2.8,1,5.3,3.1,7.3C28.9,156.9,31.3,157.9,34.2,157.9z"/>
		<path d="M160.2,232.9c-2.9,0-5.4,1-7.4,3c-2,2-3,4.5-3,7.4c0,2.8,1,5.3,3.1,7.3c2,2.1,4.5,3.1,7.3,3.1c2.8,0,5.3-1,7.4-3
			c2-2.1,3-4.6,3-7.4c0-2.8-1-5.3-3.1-7.3C165.4,233.9,163,232.9,160.2,232.9z"/>
		<path d="M135.8,232.9c-2.9,0-5.4,1-7.4,3c-2,2-3,4.5-3,7.4c0,2.8,1,5.3,3.1,7.3c2.1,2.1,4.5,3.1,7.4,3.1c2.8,0,5.3-1,7.4-3
			c2-2.1,3-4.6,3-7.4c0-2.9-1-5.4-3-7.4C141.2,233.9,138.7,232.9,135.8,232.9z"/>
		<path d="M102.6,232.5c-3,0-5.6,1.1-7.7,3.3c-2.2,2.1-3.3,4.6-3.3,7.6c0,3,1.1,5.6,3.2,7.7c2.1,2.1,4.8,3.2,7.7,3.2
			c3,0,5.6-1,7.8-3.1c2.1-2.2,3.1-4.8,3.1-7.8c0-2.9-1.1-5.6-3.1-7.7C108.3,233.6,105.7,232.5,102.6,232.5z"/>
		<path d="M196.7,155.9c2.9,0,5.3-1,7.4-3.1c2-2,3-4.4,3-7.3c0-2.8-1-5.3-3.1-7.4c-2-2.1-4.5-3.1-7.4-3.1c-2.8,0-5.3,1-7.3,3
			c-2.1,2.1-3.1,4.6-3.1,7.5c0,2.8,1,5.3,3.1,7.3C191.4,154.9,193.8,155.9,196.7,155.9z"/>
		<path d="M223.8,155.9c2.8,0,5.3-1,7.4-3.1c2-2,3-4.4,3-7.3c0-2.8-1-5.3-3.1-7.4c-2.1-2.1-4.5-3.1-7.4-3.1c-2.8,0-5.3,1-7.3,3.1
			c-2.1,2-3.1,4.5-3.1,7.5c0,2.9,1,5.3,3.1,7.4C218.5,154.9,221,155.9,223.8,155.9z"/>
		<path d="M58.6,157.9c2.9,0,5.4-1,7.4-3.2c2-2,3-4.4,3-7.3c0-2.8-1-5.3-3-7.3c-2-2.1-4.5-3.1-7.4-3.1c-2.9,0-5.4,1-7.4,3
			c-2,2.1-3,4.6-3,7.4c0,2.9,1,5.3,3,7.4C53.2,156.9,55.6,157.9,58.6,157.9z"/>
		<path d="M336.1,200.6c0-10.9-3.8-19.9-11.4-27.1c-7.6-7.2-16.9-10.7-27.9-10.7h-18.6c-5.5,0-9.9,4.4-9.9,9.9s4.4,9.9,9.9,9.9h17.6
			c6.4,0,11.4,1.7,15,5s5.5,8,5.5,14v4.1h-74.6v-9.7c0-9.6-3-17.6-8.9-23.9c-5.9-6.3-13.4-9.4-22.5-9.4c-8.5,0-15.5,2.7-21.1,8.2
			c-5.6,5.4-8.4,11.9-8.4,19.5c0,6.1,2,11.2,6.1,15.3h-22.5c-2.1,0-3.7-0.7-4.9-2.1c-1.2-1.4-1.8-3.3-1.8-5.7v-25.2
			c0-5.5-4.5-10-10-9.9c-5.5,0-9.9,4.5-9.9,9.9v25.2c0,2.3-0.6,4.2-1.8,5.7c-1.2,1.4-2.8,2.1-4.8,2.1h-11.9c-2.1,0-3.7-0.7-4.8-2.1
			c-1.1-1.4-1.7-3.3-1.7-5.7v-25.2c0-5.5-4.4-9.9-9.9-9.9h-0.1c-5.5,0-9.9,4.4-9.9,9.9v25.2c0,2.3-0.6,4.2-1.7,5.7
			c-1.1,1.4-2.7,2.1-4.8,2.1h-5.3c-2.1,0-3.7-0.7-4.8-2.1c-1.1-1.4-1.7-3.3-1.7-5.7v-35.2H43.9c-8.6,0-16,3-22.1,9.2
			c-6.2,6.2-9.3,13.7-9.3,22.3c0,8.7,3,16.1,9.2,22.2c6.1,6.1,13.5,9.1,22.2,9.1c8.1,0,14.8-2.8,20-8.5c3.8,5.7,9.6,8.5,17.3,8.5
			h5.3c7,0,12.5-2.4,16.6-7.2c3.9,4.8,9.4,7.2,16.5,7.2h11.9c6.9,0,12.3-2.4,16.4-7.2c4.1,4.8,9.6,7.2,16.6,7.2h171.8v-19.8
			L336.1,200.6z M54.7,194.2c0,3.4-1,6.2-3.1,8.4c-2,2.1-4.6,3.2-7.7,3.2c-3.2,0-5.9-1.1-8.2-3.4c-2.3-2.3-3.4-5-3.4-8.2
			c0-3.2,1.1-5.9,3.4-8.2c2.3-2.3,5-3.4,8.2-3.4h10.8V194.2z M221.7,205.7h-11.2c-3.1,0-6.2-1.2-8.4-3.4c-2.3-2.3-3.4-5-3.4-8.2
			c0-3.2,1.1-5.9,3.4-8.2c2.2-2.2,5.1-3.4,8.2-3.4c3.2,0,5.9,1.1,8.1,3.4c2.2,2.3,3.3,5,3.3,8.2V205.7z"/>
	</g>
</g>
</svg>
