<svg width="474" height="445" viewBox="0 0 474 445" fill="none" xmlns="http://www.w3.org/2000/svg">
<path d="M428.563 37.5234C459.726 76.2109 450.209 148.249 445.09 215.169C439.972 282.089 439.546 343.904 408.383 385.905C377.113 427.937 315.314 450 259.473 444.036C203.631 437.973 153.855 403.783 104.723 361.75C55.5921 319.718 7.03717 269.987 8.49695 221.646C9.95673 173.305 61.4124 126.5 110.563 87.8184C159.713 49.1372 206.557 18.5994 265.938 6.05227C325.319 -6.49485 397.425 -1.15778 428.563 37.5234Z" fill="#E45858" fill-opacity="0.07"/>
<path d="M425.248 91.1259H49.6777V363.498H425.248V91.1259Z" fill="#6246EA" fill-opacity="0.24"/>
<path d="M425.248 91.1259H49.6777V120.993H425.248V91.1259Z" fill="#EAF0FF"/>
<path d="M357.766 106.06C357.767 107.53 357.333 108.967 356.517 110.189C355.701 111.412 354.54 112.365 353.182 112.928C351.824 113.492 350.33 113.639 348.888 113.353C347.446 113.066 346.121 112.359 345.082 111.319C344.042 110.28 343.334 108.955 343.048 107.514C342.761 106.072 342.909 104.578 343.472 103.22C344.035 101.862 344.989 100.702 346.212 99.886C347.434 99.0702 348.872 98.6354 350.342 98.6366C352.311 98.6383 354.198 99.4209 355.59 100.813C356.982 102.204 357.765 104.091 357.766 106.06Z" fill="#FB5D64"/>
<path d="M386.31 106.06C386.311 107.529 385.877 108.966 385.061 110.189C384.245 111.411 383.085 112.365 381.728 112.928C380.37 113.491 378.876 113.639 377.434 113.353C375.992 113.067 374.668 112.36 373.628 111.321C372.588 110.283 371.88 108.959 371.592 107.518C371.305 106.076 371.452 104.582 372.014 103.224C372.576 101.866 373.529 100.706 374.751 99.8891C375.973 99.0725 377.41 98.6366 378.88 98.6366C380.849 98.6366 382.738 99.4185 384.132 100.81C385.525 102.202 386.309 104.09 386.31 106.06Z" fill="#FB5D64"/>
<path d="M414.854 106.06C414.855 107.53 414.42 108.968 413.603 110.191C412.786 111.415 411.625 112.368 410.266 112.93C408.907 113.493 407.411 113.639 405.969 113.351C404.526 113.063 403.202 112.354 402.163 111.313C401.124 110.271 400.418 108.945 400.133 107.502C399.849 106.059 399.999 104.564 400.565 103.207C401.131 101.849 402.088 100.691 403.313 99.8769C404.538 99.0633 405.978 98.6317 407.449 98.6366C409.418 98.6366 411.307 99.4185 412.701 100.81C414.094 102.202 414.878 104.09 414.879 106.06" fill="#FB5D64"/>
<path d="M378.529 156.849C374.619 156.849 373.586 164.605 366.625 164.605H325.582V205.854H391.222V156.849H378.529Z" fill="#F4F7FF"/>
<path d="M294.79 156.849C290.88 156.849 289.846 164.605 282.886 164.605H241.843V205.854H307.483V156.849H294.79Z" fill="#F4F7FF"/>
<path d="M199.145 164.605H158.096V205.854H223.742V156.849H211.042C207.139 156.849 206.106 164.605 199.139 164.605" fill="#F4F7FF"/>
<path d="M306.655 241.71L290.854 299.234L342.799 289.167L306.655 241.71Z" stroke="#EAF0FF" stroke-width="3" stroke-linecap="round" stroke-linejoin="round"/>
<path d="M239.525 386.275C250.594 386.275 259.567 377.303 259.567 366.236C259.567 355.168 250.594 346.196 239.525 346.196C228.456 346.196 219.482 355.168 219.482 366.236C219.482 377.303 228.456 386.275 239.525 386.275Z" stroke="#EAF0FF" stroke-width="3" stroke-linecap="round" stroke-linejoin="round"/>
<path d="M265.537 344.442C271.423 344.442 276.194 339.672 276.194 333.787C276.194 327.902 271.423 323.132 265.537 323.132C259.651 323.132 254.88 327.902 254.88 333.787C254.88 339.672 259.651 344.442 265.537 344.442Z" stroke="#EAF0FF" stroke-width="3" stroke-linecap="round" stroke-linejoin="round"/>
<path d="M146.192 67.1216L205.198 79.6499L130.104 136.027L146.192 67.1216Z" stroke="#B2C3FB" stroke-width="3" stroke-linecap="round" stroke-linejoin="round"/>
<path d="M473.84 231.694H366.625V390.672H473.84V231.694Z" fill="#EAF0FF"/>
<path d="M453.661 280.636C453.661 287.247 451.7 293.71 448.026 299.207C444.352 304.704 439.131 308.988 433.022 311.517C426.913 314.047 420.19 314.709 413.705 313.419C407.22 312.128 401.263 308.944 396.588 304.269C391.913 299.594 388.73 293.637 387.44 287.153C386.151 280.668 386.814 273.948 389.345 267.84C391.877 261.732 396.163 256.512 401.661 252.84C407.16 249.168 413.624 247.209 420.236 247.21C429.101 247.212 437.603 250.734 443.871 257.002C450.139 263.271 453.661 271.772 453.661 280.636Z" fill="#6246EA" fill-opacity="0.24"/>
<path d="M461.893 329.321H378.579V347.631H461.893V329.321Z" fill="#6246EA" fill-opacity="0.24"/>
<path d="M461.893 360.604H378.579V378.914H461.893V360.604Z" fill="#6246EA" fill-opacity="0.24"/>
<path d="M24.6486 348.784C24.4858 352.385 21.8293 378.162 18.584 387.897C29.454 386.462 88.691 374.742 106.509 364.444C105.093 354.81 29.855 347.781 24.6486 348.784Z" fill="#3C3744"/>
<path d="M59.9587 155.979C59.9587 159.163 59.0144 162.275 57.2452 164.923C55.4759 167.57 52.9612 169.634 50.0191 170.852C47.0769 172.071 43.8394 172.39 40.7161 171.768C37.5927 171.147 34.7237 169.614 32.4719 167.362C30.22 165.111 28.6865 162.242 28.0653 159.12C27.444 155.997 27.7628 152.76 28.9815 149.818C30.2002 146.876 32.264 144.362 34.9118 142.593C37.5597 140.824 40.6727 139.88 43.8573 139.88C45.972 139.879 48.0661 140.295 50.02 141.104C51.9739 141.912 53.7493 143.098 55.2446 144.593C56.7399 146.088 57.9259 147.863 58.7348 149.817C59.5436 151.771 59.9596 153.864 59.9587 155.979Z" fill="#E45858"/>
<path d="M110.3 183.892C111.446 183.353 113.113 179.726 113.113 174.352C113.113 160.99 102.963 154.726 86.7302 154.726C75.3965 154.726 62.0392 158.961 53.5249 174.859C47.1657 186.673 44.5782 212.757 39.2717 222.141C35.9135 228.073 28.7901 240.088 23.3206 251.388C21.2656 254.257 10.9344 276.144 26.71 283.336C42.4857 290.527 115.744 287.57 117.693 284.482C119.641 281.394 108.69 259.337 105.087 254.871C101.485 250.405 96.3158 244.723 99.2605 222.755C102.205 200.786 99.5424 187.838 102.067 186.792C104.592 185.746 107.656 185.683 110.3 183.892Z" fill="#E45858"/>
<path d="M69.5817 199.264C69.5817 200.616 69.1808 201.937 68.4297 203.061C67.6787 204.185 66.6111 205.061 65.3622 205.578C64.1132 206.095 62.7388 206.231 61.4129 205.967C60.087 205.703 58.8691 205.052 57.9131 204.097C56.9572 203.141 56.3062 201.923 56.0425 200.597C55.7787 199.272 55.9141 197.898 56.4314 196.649C56.9488 195.4 57.8249 194.333 58.9489 193.582C60.073 192.831 61.3945 192.43 62.7464 192.43C64.5587 192.432 66.2964 193.152 67.5779 194.433C68.8594 195.715 69.58 197.452 69.5817 199.264Z" fill="white"/>
<path d="M22.0549 346.196C21.892 349.798 19.2356 375.575 15.9902 385.31" stroke="#1B3C87" stroke-width="3.69" stroke-linecap="round" stroke-linejoin="round"/>
<path d="M173.496 239.693C178.79 231.312 177.255 221.646 174.981 224.621C174.223 225.617 164.33 245.657 162.357 247.692C160.822 247.742 159.6 247.943 159.086 248.363C157.081 249.991 157.833 261.405 157.081 262.407C156.329 263.409 127.729 307.308 126.47 308.687C126.344 309.188 122.711 292.262 121.602 289.268C118.745 291.573 111.634 295.651 109.491 296.346C109.736 298.282 110.938 322.211 109.491 329.985C110.707 332.39 118.049 339.682 121.169 339.682C127.178 339.682 133.568 337.37 135.247 336.211C142.258 331.4 169.311 269.279 171.291 267.988C175.244 265.395 181.829 256.45 182.75 250.787C182.75 248.281 184.805 246.646 173.477 239.674" fill="white"/>
<path d="M93.6336 248.262C111.282 242.499 127.34 282.565 126.087 285.797C124.834 289.03 107.016 298.689 103.132 298.175C99.2471 297.662 86.7795 250.486 93.6336 248.25" fill="#6246EA"/>
<path d="M91.0594 245.675C108.708 239.912 124.766 279.984 123.513 283.21C122.26 286.436 104.442 296.102 100.557 295.601C96.673 295.1 84.1678 247.912 91.0594 245.675Z" stroke="#1B3C87" stroke-width="3.69" stroke-linecap="round" stroke-linejoin="round"/>
<path d="M72.389 238.246C122.341 239.417 109.723 350.963 107.43 354.947C104.341 360.31 40.3929 365.177 25.1436 350.218C21.6163 346.76 24.9681 237.137 72.389 238.246Z" fill="#6246EA"/>
<path d="M64.0127 236.098C65.9228 235.758 67.8624 235.613 69.8017 235.665C85.1513 236.022 94.5929 246.803 100.244 261.687" stroke="#1B3C87" stroke-width="3.69" stroke-linecap="round" stroke-linejoin="round"/>
<path d="M107.599 302.047C108.953 327.335 105.864 350.581 104.843 352.36C101.754 357.722 37.8057 362.59 22.5563 347.631C19.3486 344.499 21.8296 253.455 58.0233 237.901" stroke="#1B3C87" stroke-width="3.69" stroke-linecap="round" stroke-linejoin="round"/>
<path d="M106.095 171.552C106.195 177.753 62.9595 183.623 62.7214 192.43C62.4834 201.237 62.3393 206.324 62.3393 206.324C63.8868 214.536 60.5349 243.571 59.5889 246.602C63.2164 249.979 81.4104 249.735 83.3964 247.692C83.1396 245.65 83.1772 231.744 83.6972 230.153C84.4614 230.255 85.2316 230.308 86.0027 230.309C99.9176 230.309 111.201 213.891 111.201 193.633C111.201 183.046 111.026 180.246 106.108 171.533" fill="white"/>
<path d="M46.6077 241.635C65.9482 247.642 54.3702 294.486 50.6738 296.334C46.9774 298.182 10.7523 287.833 10.013 283.768C9.27368 279.702 21.9669 233.974 46.6077 241.635Z" fill="#6246EA"/>
<path d="M54.8967 263.19C54.7401 277.428 50.1665 292.707 48.0865 293.747C44.3901 295.594 8.16496 285.246 7.42567 281.181C7.20639 279.984 8.14616 275.198 10.2137 269.222" stroke="#1B3C87" stroke-width="3.69" stroke-linecap="round" stroke-linejoin="round"/>
<path d="M20.4004 249.24C26.3272 241.384 34.2338 236.003 44.02 239.048C44.8122 239.29 45.5766 239.616 46.3005 240.019" stroke="#1B3C87" stroke-width="3.69" stroke-linecap="round" stroke-linejoin="round"/>
<path d="M137.634 285.534C145.584 273.432 154.105 260.396 154.512 259.851C155.264 258.849 154.512 247.436 156.517 245.807C158.522 244.178 171.303 245.807 171.303 247.26C171.303 248.713 166.084 253.524 164.806 253.881" stroke="#1B3C87" stroke-width="3.69" stroke-linecap="round" stroke-linejoin="round"/>
<path d="M119.171 287.107C120.28 290.107 123.776 306.638 123.901 306.137C124.221 305.78 126.319 302.667 129.283 298.207" stroke="#1B3C87" stroke-width="3.69" stroke-linecap="round" stroke-linejoin="round"/>
<path d="M170.908 237.106C176.202 228.725 174.667 219.059 172.393 222.034C171.635 223.03 161.742 243.069 159.769 245.105" stroke="#1B3C87" stroke-width="3.69" stroke-linecap="round" stroke-linejoin="round"/>
<path d="M172.675 239.292C171.967 240.633 168.722 246.039 168.722 246.039" stroke="#1B3C87" stroke-width="3.69" stroke-linecap="round" stroke-linejoin="round"/>
<path d="M176.146 241.428C174.769 244.544 173.149 247.548 171.303 250.411" stroke="#1B3C87" stroke-width="3.69" stroke-linecap="round" stroke-linejoin="round"/>
<path d="M179.26 243.759C177.648 247.256 175.797 250.638 173.722 253.881" stroke="#1B3C87" stroke-width="3.69" stroke-linecap="round" stroke-linejoin="round"/>
<path d="M170.87 263.647C170.21 264.302 169.49 264.896 168.721 265.42C166.742 266.717 139.689 328.832 132.678 333.649C130.999 334.802 124.609 337.113 118.6 337.113C115.468 337.113 108.808 330.849 107.599 328.463" stroke="#1B3C87" stroke-width="3.69" stroke-linecap="round" stroke-linejoin="round"/>
<path d="M180.181 248.219C179.799 250.58 178.427 253.512 176.679 256.318" stroke="#1B3C87" stroke-width="3.69" stroke-linecap="round" stroke-linejoin="round"/>
<path d="M102.963 214.267C98.3391 222.492 91.3159 227.741 83.4469 227.741C78.4347 227.741 73.7421 225.599 69.8076 221.909" stroke="#1B3C87" stroke-width="3.69" stroke-linecap="round" stroke-linejoin="round"/>
<path d="M103.521 168.964C106.946 175.821 108.687 183.395 108.602 191.058C108.613 194.924 108.192 198.78 107.349 202.553" stroke="#1B3C87" stroke-width="3.69" stroke-linecap="round" stroke-linejoin="round"/>
<path d="M64.0124 202.277C63.0367 202.949 61.9027 203.356 60.7222 203.456C59.5416 203.557 58.3552 203.349 57.2797 202.852C56.2042 202.355 55.2767 201.586 54.5884 200.622C53.9002 199.658 53.475 198.531 53.3546 197.352C53.2343 196.174 53.423 194.984 53.9021 193.901C54.3812 192.817 55.1343 191.877 56.0871 191.173C57.04 190.469 58.1598 190.025 59.3363 189.885C60.5128 189.745 61.7055 189.914 62.797 190.375" stroke="#1B3C87" stroke-width="3.69" stroke-linecap="round" stroke-linejoin="round"/>
<path d="M84.8379 188.972C84.8379 190.419 84.2114 191.597 83.4095 191.597C82.6075 191.597 81.9873 190.419 81.9873 188.972C81.9873 187.525 82.6138 186.341 83.4095 186.341C84.2052 186.341 84.8379 187.519 84.8379 188.972Z" fill="#1B3C87"/>
<path d="M97.8506 201.244C98.0899 201.715 98.3843 202.157 98.7277 202.559" stroke="#1B3C87" stroke-width="3.69" stroke-linecap="round" stroke-linejoin="round"/>
<path d="M96.453 193.163C96.3185 195.087 96.4941 197.02 96.973 198.888" stroke="#1B3C87" stroke-width="3.69" stroke-linecap="round" stroke-linejoin="round"/>
<path d="M76.8242 206.43C77.0999 208.272 79.1298 210.665 81.9804 211.586" stroke="#1B3C87" stroke-width="3.69" stroke-linecap="round" stroke-linejoin="round"/>
<path d="M80.8093 245.105C80.5525 243.063 80.59 229.157 81.1101 227.566" stroke="#1B3C87" stroke-width="3.69" stroke-linecap="round" stroke-linejoin="round"/>
<path d="M58.7564 231.694C58.1298 237.864 57.378 242.85 57.0146 244.015C58.4556 245.356 62.1834 246.12 66.2871 246.433" stroke="#1B3C87" stroke-width="3.69" stroke-linecap="round" stroke-linejoin="round"/>
<path d="M59.7646 203.743C60.3912 206.932 60.2283 213.258 59.7646 219.986" stroke="#1B3C87" stroke-width="3.69" stroke-linecap="round" stroke-linejoin="round"/>
<path d="M29.3538 164.216C27.5371 162.218 26.2523 159.796 25.6177 157.172C24.9831 154.547 25.0191 151.805 25.7224 149.199C26.4257 146.592 27.7737 144.204 29.6421 142.255C31.5106 140.305 33.8396 138.858 36.4146 138.044" stroke="#1B3C87" stroke-width="3.69" stroke-linecap="round" stroke-linejoin="round"/>
<path d="M56.1053 147.134C57.2682 149.885 57.6435 152.904 57.1894 155.856C56.7353 158.808 55.4697 161.575 53.5337 163.849C51.5978 166.123 49.0678 167.815 46.2261 168.735C43.3845 169.654 40.3431 169.767 37.4414 169.058" stroke="#1B3C87" stroke-width="3.69" stroke-linecap="round" stroke-linejoin="round"/>
<path d="M97.4434 153.98C105.713 156.737 110.525 162.581 110.525 171.764C110.525 177.139 108.858 180.766 107.706 181.305" stroke="#1B3C87" stroke-width="3.69" stroke-linecap="round" stroke-linejoin="round"/>
<path d="M41.2695 205.954C44.1014 194.535 46.6638 180.177 50.9241 172.241C58.9122 157.338 71.148 152.69 81.9867 152.195" stroke="#1B3C87" stroke-width="3.69" stroke-linecap="round" stroke-linejoin="round"/>
<path d="M20.7324 248.801C24.4915 241.027 29.04 232.909 32.6362 226.676" stroke="#1B3C87" stroke-width="3.69" stroke-linecap="round" stroke-linejoin="round"/>
<path d="M96.2656 240.019C96.535 242.493 96.9423 244.567 97.5187 245.694" stroke="#1B3C87" stroke-width="3.69" stroke-linecap="round" stroke-linejoin="round"/>
<path d="M96.4029 222.498C95.9455 224.083 95.72 229.188 95.8829 234.293" stroke="#1B3C87" stroke-width="3.69" stroke-linecap="round" stroke-linejoin="round"/>
<path d="M105.205 164.88C105.205 177.866 60.1465 179.037 60.1465 189.843" stroke="#1B3C87" stroke-width="3.69" stroke-linecap="round" stroke-linejoin="round"/>
<path d="M127.829 354.791C132.171 355.518 134.646 348.37 137.289 348.752C139.219 349.028 148.448 350.212 148.855 350.851C149.262 351.49 147.752 358.142 147.752 358.142" fill="#EAF0FF"/>
<path d="M82.1014 347.085L75.2432 387.843L140.894 398.887L147.752 358.128L82.1014 347.085Z" fill="#EAF0FF"/>
<path d="M141.394 377.993L138.311 396.31L100.244 389.908" stroke="#1B3C87" stroke-width="3.69" stroke-linecap="round" stroke-linejoin="round"/>
<path d="M145.171 355.555L143.881 363.216" stroke="#1B3C87" stroke-width="3.69" stroke-linecap="round" stroke-linejoin="round"/>
<path d="M78.6414 386.274L72.6582 385.247L79.5499 344.486L135.454 353.882" stroke="#1B3C87" stroke-width="3.69" stroke-linecap="round" stroke-linejoin="round"/>
<path d="M125.241 352.204C129.583 352.93 132.064 345.783 134.702 346.165C136.631 346.441 145.86 347.625 146.267 348.264C146.674 348.903 145.164 355.555 145.164 355.555" stroke="#1B3C87" stroke-width="3.69" stroke-linecap="round" stroke-linejoin="round"/>
<path d="M128.164 359.405L125.236 376.806L134.776 378.411L137.704 361.009L128.164 359.405Z" fill="#FB5D64"/>
<path d="M85.1758 355.555L122.66 361.857" stroke="#1B3C87" stroke-width="3.69" stroke-linecap="round" stroke-linejoin="round"/>
<path d="M115.662 368.866L121.238 369.806" stroke="#1B3C87" stroke-width="3.69" stroke-linecap="round" stroke-linejoin="round"/>
<path d="M83.7598 363.504L105.293 367.125" stroke="#1B3C87" stroke-width="3.69" stroke-linecap="round" stroke-linejoin="round"/>
<path d="M125.881 357.315C124.903 349.798 122.642 341.818 106.659 342.507C104.498 340.772 62.5213 328.87 37.2101 322.305C40.1547 316.222 43.588 297.687 43.7635 295.995C41.8839 295.645 14.1481 287.113 14.1481 287.113C14.1481 287.113 2.5513 335.597 5.06989 339.65C20.5887 349.535 78.8044 356.658 105.087 354.81C106.929 356.257 106.678 357.165 109.291 357.535C111.903 357.904 125.881 357.315 125.881 357.315Z" fill="white"/>
<path d="M75.7969 330.968C90.7581 335.253 102.931 338.993 104.065 339.92C120.06 339.231 122.316 347.18 123.293 354.728" stroke="#1B3C87" stroke-width="3.69" stroke-linecap="round" stroke-linejoin="round"/>
<path d="M41.1754 293.433C40.9937 295.1 37.5604 313.635 34.6221 319.743C43.4309 322.017 54.2633 324.942 64.7324 327.886" stroke="#1B3C87" stroke-width="3.69" stroke-linecap="round" stroke-linejoin="round"/>
<path d="M109.453 347.662C110.178 350.237 110.443 352.92 110.236 355.586" stroke="#1B3C87" stroke-width="3.69" stroke-linecap="round" stroke-linejoin="round"/>
<path d="M114.277 347.662C115.009 350.236 115.274 352.919 115.06 355.586" stroke="#1B3C87" stroke-width="3.69" stroke-linecap="round" stroke-linejoin="round"/>
<path d="M118.168 347.662C118.894 350.237 119.157 352.92 118.945 355.586" stroke="#1B3C87" stroke-width="3.69" stroke-linecap="round" stroke-linejoin="round"/>
<path d="M3.12764 324.685C2.03124 331.438 1.56761 336.487 2.50112 337.063C24.1973 350.844 89.7684 352.999 102.518 352.222" stroke="#1B3C87" stroke-width="3.69" stroke-linecap="round" stroke-linejoin="round"/>
<path d="M11.5608 284.551C11.3228 285.39 9.0861 294.786 6.83691 305.417" stroke="#1B3C87" stroke-width="3.69" stroke-linecap="round" stroke-linejoin="round"/>
</svg>
