<svg width="443" height="445" viewBox="0 0 443 445" fill="none" xmlns="http://www.w3.org/2000/svg">
<path d="M22.0017 37.5234C-9.16116 76.2109 0.355591 148.249 5.47424 215.169C10.5929 282.089 11.0189 343.904 42.1818 385.905C73.4511 427.937 135.251 450 191.092 444.036C246.933 437.973 296.71 403.783 345.841 361.75C394.972 319.718 443.527 269.987 442.067 221.646C440.608 173.305 389.152 126.5 340.002 87.8184C290.852 49.1372 244.007 18.5994 184.626 6.05227C125.245 -6.49485 53.1395 -1.15778 22.0017 37.5234Z" fill="#E45858" fill-opacity="0.07"/>
<path fill-rule="evenodd" clip-rule="evenodd" d="M25.8026 209.337C26.2201 208.842 26.8701 208.606 27.5079 208.72L189.743 237.675C190.381 237.789 190.91 238.234 191.13 238.844C191.35 239.453 191.229 240.134 190.812 240.63L137.72 303.671L84.6282 366.712C84.2107 367.207 83.5607 367.443 82.9229 367.329C82.2851 367.215 81.7564 366.769 81.5361 366.16L25.4841 211.123C25.2638 210.514 25.3852 209.833 25.8026 209.337ZM29.963 212.844L83.8784 361.971L186.014 240.695L107.988 226.771L29.963 212.844Z" fill="#D7CAF1"/>
<path fill-rule="evenodd" clip-rule="evenodd" d="M56.4092 72.3193H318.782V325.034H56.4092V72.3193Z" fill="#D7CAF1"/>
<path fill-rule="evenodd" clip-rule="evenodd" d="M132.506 113.84H278.718V123.936H132.506V113.84Z" fill="#F4F7FF"/>
<path fill-rule="evenodd" clip-rule="evenodd" d="M132.506 158.851H278.718V168.946H132.506V158.851Z" fill="#F4F7FF"/>
<path fill-rule="evenodd" clip-rule="evenodd" d="M132.506 203.861H278.718V213.957H132.506V203.861Z" fill="#F4F7FF"/>
<path fill-rule="evenodd" clip-rule="evenodd" d="M110.768 107.965C111.456 108.693 111.424 109.842 110.696 110.53L93.7387 126.56C93.0399 127.22 91.9472 127.221 91.2482 126.56L83.1338 118.895C82.4056 118.207 82.3728 117.058 83.0604 116.33C83.748 115.602 84.8957 115.569 85.6239 116.257L92.4928 122.746L108.205 107.893C108.933 107.204 110.08 107.237 110.768 107.965Z" fill="#F4F7FF"/>
<path fill-rule="evenodd" clip-rule="evenodd" d="M110.768 155.107C111.456 155.835 111.424 156.983 110.696 157.672L93.7387 173.702C93.0399 174.362 91.9472 174.362 91.2482 173.702L83.1338 166.036C82.4056 165.349 82.3728 164.2 83.0604 163.472C83.748 162.743 84.8957 162.71 85.6239 163.398L92.4928 169.887L108.205 155.034C108.933 154.346 110.08 154.379 110.768 155.107Z" fill="#F4F7FF"/>
<path fill-rule="evenodd" clip-rule="evenodd" d="M110.768 202.249C111.456 202.977 111.424 204.125 110.696 204.813L93.7387 220.844C93.0399 221.504 91.9472 221.504 91.2482 220.844L83.1338 213.178C82.4056 212.49 82.3728 211.342 83.0604 210.614C83.748 209.885 84.8957 209.852 85.6239 210.54L92.4928 217.029L108.205 202.176C108.933 201.488 110.08 201.521 110.768 202.249Z" fill="#F4F7FF"/>
<path fill-rule="evenodd" clip-rule="evenodd" d="M132.506 248.873H278.718V258.968H132.506V248.873Z" fill="#F4F7FF"/>
<path fill-rule="evenodd" clip-rule="evenodd" d="M132.506 293.883H278.718V303.98H132.506V293.883Z" fill="#F4F7FF"/>
<path fill-rule="evenodd" clip-rule="evenodd" d="M337.696 183.277C325.306 180.813 309.907 196.148 310.984 218.781L325.932 221.874C325.932 221.874 338.775 183.492 337.696 183.277Z" fill="#6246EA"/>
<path fill-rule="evenodd" clip-rule="evenodd" d="M309.359 207.08C309.767 207.142 310.053 207.571 309.999 208.037C309.677 210.793 309.575 213.577 309.695 216.354C309.715 216.824 309.398 217.224 308.987 217.247C308.576 217.271 308.226 216.908 308.206 216.438C308.081 213.558 308.187 210.67 308.521 207.811C308.576 207.345 308.951 207.017 309.359 207.08Z" fill="#1B3C87"/>
<path fill-rule="evenodd" clip-rule="evenodd" d="M312.878 194.702C318.319 184.059 327.742 177.875 336.16 179.606C336.615 179.699 336.909 180.155 336.819 180.623C336.728 181.092 336.286 181.396 335.832 181.302C328.44 179.782 319.623 185.219 314.363 195.508C314.147 195.931 313.639 196.093 313.229 195.87C312.819 195.648 312.662 195.125 312.878 194.702Z" fill="#1B3C87"/>
<path fill-rule="evenodd" clip-rule="evenodd" d="M366.752 173.766C413.66 173.766 422.734 228.013 416.503 303.582C396.165 312.113 346.197 316.488 324.11 303.036C313.722 273.944 307.689 173.766 366.752 173.766Z" fill="#6246EA"/>
<path fill-rule="evenodd" clip-rule="evenodd" d="M333.135 124.733C333.135 104.807 345.147 88.6527 359.965 88.6527C374.782 88.6527 386.793 104.807 386.793 124.733C386.793 144.66 374.782 160.814 359.965 160.814C345.147 160.814 333.135 144.66 333.135 124.733Z" fill="white"/>
<path fill-rule="evenodd" clip-rule="evenodd" d="M354.413 125.197C354.413 123.406 355.242 121.958 356.263 121.958C357.284 121.958 358.114 123.408 358.114 125.197C358.114 126.986 357.285 128.434 356.263 128.434C355.24 128.434 354.413 126.984 354.413 125.197Z" fill="#1B3C87"/>
<path fill-rule="evenodd" clip-rule="evenodd" d="M336.835 129.823C336.835 128.032 337.457 126.584 338.222 126.584C338.988 126.584 339.61 128.034 339.61 129.823C339.61 131.612 338.989 133.06 338.222 133.06C337.455 133.06 336.835 131.61 336.835 129.823Z" fill="#1B3C87"/>
<path fill-rule="evenodd" clip-rule="evenodd" d="M347.184 130.285C347.611 130.297 347.948 130.668 347.937 131.114C347.888 133.046 347.359 137.373 344.634 140.224C344.331 140.54 343.841 140.54 343.539 140.225C343.236 139.91 343.236 139.398 343.538 139.082C345.828 136.687 346.343 132.898 346.389 131.071C346.401 130.625 346.756 130.273 347.184 130.285Z" fill="#1B3C87"/>
<path fill-rule="evenodd" clip-rule="evenodd" d="M360.529 143.381C360.903 143.641 361.001 144.164 360.749 144.549C358.807 147.523 355.781 148.458 353.488 148.78C353.042 148.842 352.631 148.52 352.57 148.059C352.509 147.598 352.822 147.174 353.269 147.111C355.372 146.816 357.835 145.997 359.396 143.608C359.648 143.222 360.155 143.121 360.529 143.381Z" fill="#1B3C87"/>
<path fill-rule="evenodd" clip-rule="evenodd" d="M373.005 228.809C373.21 228.398 373.707 228.232 374.114 228.44C379.621 231.248 388.23 235.689 395.461 239.427C399.077 241.296 402.349 242.99 404.716 244.216C405.542 244.644 406.258 245.015 406.84 245.316C406.84 245.314 406.839 245.312 406.838 245.309C406.505 244.161 406.045 242.586 405.538 240.875C404.523 237.447 403.326 233.5 402.583 231.356C402.432 230.921 402.659 230.445 403.089 230.292C403.52 230.14 403.991 230.369 404.142 230.804C404.9 232.991 406.108 236.976 407.121 240.397C407.629 242.111 408.09 243.689 408.423 244.839C408.59 245.414 408.725 245.882 408.819 246.207C408.847 246.303 408.871 246.387 408.891 246.457C408.905 246.504 408.917 246.546 408.927 246.581L408.964 246.711L408.964 246.712C408.964 246.712 408.964 246.712 408.171 246.944C407.794 247.686 407.794 247.686 407.793 247.686L407.528 247.549C407.354 247.458 407.097 247.325 406.766 247.154C406.104 246.811 405.146 246.314 403.963 245.701C401.595 244.475 398.324 242.781 394.709 240.912C387.477 237.174 378.872 232.736 373.37 229.93C372.963 229.722 372.799 229.22 373.005 228.809ZM408.171 246.944L407.794 247.686C408.087 247.838 408.442 247.8 408.696 247.588C408.951 247.376 409.056 247.032 408.964 246.712L408.171 246.944Z" fill="#1B3C87"/>
<path fill-rule="evenodd" clip-rule="evenodd" d="M346.403 233.013C346.857 233.148 347.113 233.619 346.975 234.065L344.068 243.479C343.93 243.925 343.451 244.177 342.997 244.041C342.543 243.906 342.286 243.435 342.424 242.989L345.331 233.575C345.469 233.129 345.949 232.877 346.403 233.013Z" fill="#1B3C87"/>
<path fill-rule="evenodd" clip-rule="evenodd" d="M355.658 203.407C356.109 203.539 356.364 203.999 356.227 204.434L352.383 216.664C352.246 217.099 351.77 217.345 351.319 217.213C350.868 217.081 350.613 216.621 350.75 216.186L354.594 203.956C354.73 203.521 355.207 203.275 355.658 203.407Z" fill="#1B3C87"/>
<path fill-rule="evenodd" clip-rule="evenodd" d="M330.183 186.887C330.553 187.165 330.627 187.689 330.348 188.057C319.278 202.691 315.005 225.238 314.508 246.958C314.015 268.472 317.231 288.97 321.036 299.787C327.095 303.392 335.293 305.694 344.465 306.938C353.754 308.198 363.981 308.365 373.875 307.735C374.337 307.706 374.735 308.055 374.765 308.516C374.794 308.976 374.443 309.374 373.982 309.403C364.004 310.038 353.662 309.872 344.239 308.594C334.828 307.318 326.271 304.924 319.91 301.062C319.746 300.962 319.621 300.81 319.556 300.629C315.621 289.642 312.332 268.76 312.832 246.92C313.331 225.099 317.616 202.113 329.009 187.051C329.288 186.683 329.814 186.609 330.183 186.887Z" fill="#1B3C87"/>
<path fill-rule="evenodd" clip-rule="evenodd" d="M363.132 171.737C355.563 171.737 349.109 173.408 343.618 176.361C343.212 176.579 342.705 176.427 342.486 176.021C342.268 175.614 342.42 175.108 342.827 174.889C348.579 171.796 355.308 170.066 363.132 170.066C375.034 170.066 384.598 173.512 392.118 179.924C399.624 186.324 405.031 195.623 408.739 207.224C416.146 230.402 416.842 263.002 413.724 300.811C413.698 301.122 413.502 301.393 413.215 301.513C410.069 302.832 406.246 304.047 401.953 305.113C401.505 305.224 401.052 304.951 400.941 304.503C400.829 304.055 401.102 303.602 401.55 303.491C405.572 302.492 409.144 301.369 412.101 300.165C415.167 262.61 414.416 230.477 407.147 207.733C403.5 196.321 398.23 187.332 391.034 181.196C383.852 175.073 374.687 171.737 363.132 171.737Z" fill="#1B3C87"/>
<path fill-rule="evenodd" clip-rule="evenodd" d="M411.752 298.662C412.274 298.662 412.697 299.036 412.697 299.498C412.697 302.03 412.476 322.203 412.255 341.734C412.144 351.501 412.034 361.111 411.951 368.278C411.909 371.862 411.875 374.836 411.85 376.913C411.838 377.952 411.829 378.766 411.822 379.321L411.812 380.171C411.812 380.172 411.812 380.172 410.867 380.163C409.922 380.155 409.922 380.154 409.922 380.154L409.932 379.304C409.938 378.749 409.948 377.934 409.96 376.896C409.984 374.818 410.019 371.845 410.06 368.261C410.143 361.094 410.254 351.484 410.364 341.717C410.586 322.178 410.807 302.019 410.807 299.498C410.807 299.036 411.23 298.662 411.752 298.662ZM410.857 381C410.335 380.995 409.917 380.617 409.922 380.155L410.867 380.163L411.812 380.172C411.807 380.634 411.379 381.005 410.857 381Z" fill="#1B3C87"/>
<path fill-rule="evenodd" clip-rule="evenodd" d="M354.403 220.024C351.592 220.024 339.435 221.584 346.317 232.909C350.261 239.398 351.888 237.532 353.542 235.479C354.83 236.155 356.816 237.749 358.095 238.818C358.086 238.839 358.079 238.86 358.07 238.882C361.547 241.614 407.436 281.976 416.874 284.396C426.311 286.816 436.924 277.413 441.004 270.339C445.508 262.539 436.968 230.894 435.461 227.404C433.953 223.914 406.33 235.135 406.33 235.135C406.33 235.135 410.803 248.616 411.983 254.189C409.381 252.714 368.339 232.504 362.994 226.291C362.986 226.309 362.975 226.341 362.966 226.358C361.009 224.343 356.567 220.024 354.403 220.024Z" fill="white"/>
<path fill-rule="evenodd" clip-rule="evenodd" d="M320.214 297.737C320.708 297.737 321.108 298.113 321.108 298.576L321.047 371.836C321.047 372.299 320.646 372.674 320.152 372.674C319.658 372.673 319.257 372.298 319.258 371.834L319.319 298.574C319.319 298.111 319.72 297.736 320.214 297.737Z" fill="#1B3C87"/>
<path fill-rule="evenodd" clip-rule="evenodd" d="M355.024 344.016C355.449 343.91 355.874 344.192 355.974 344.646C358.405 355.742 361.071 368.04 363.644 379.966C363.742 380.42 363.477 380.874 363.051 380.978C362.626 381.083 362.201 380.799 362.103 380.345C359.53 368.42 356.865 356.124 354.434 345.031C354.335 344.577 354.599 344.123 355.024 344.016Z" fill="#1B3C87"/>
<path fill-rule="evenodd" clip-rule="evenodd" d="M382.168 140.461C382.019 142.269 378.123 172.76 379.521 183.609C376.174 186.472 353.019 186.893 353.496 182.605C354.295 175.421 355.994 164.271 354.544 158.592" fill="white"/>
<path fill-rule="evenodd" clip-rule="evenodd" d="M352.429 157.12C352.832 157.064 353.199 157.386 353.249 157.84C353.866 163.433 353.171 170.035 352.512 176.293C352.397 177.377 352.284 178.45 352.18 179.506C352.134 179.961 351.77 180.288 351.367 180.237C350.963 180.186 350.672 179.777 350.718 179.322C350.825 178.24 350.94 177.149 351.054 176.056C351.713 169.782 352.382 163.418 351.789 158.044C351.739 157.59 352.026 157.177 352.429 157.12Z" fill="#1B3C87"/>
<path fill-rule="evenodd" clip-rule="evenodd" d="M380.477 140.464C380.937 140.503 381.278 140.91 381.24 141.373C381.218 141.639 381.128 142.388 380.994 143.497C380.887 144.39 380.751 145.518 380.6 146.816C380.258 149.749 379.833 153.6 379.456 157.738C378.701 166.047 378.155 175.404 378.855 180.842C378.891 181.124 378.783 181.406 378.568 181.59C378.112 181.982 377.462 182.287 376.742 182.537C376.005 182.792 375.122 183.012 374.145 183.199C372.191 183.573 369.798 183.825 367.315 183.942C366.854 183.964 366.463 183.605 366.441 183.14C366.42 182.676 366.776 182.282 367.237 182.26C369.667 182.146 371.977 181.9 373.833 181.545C374.762 181.367 375.562 181.165 376.199 180.944C376.596 180.807 376.906 180.67 377.136 180.543C376.505 174.839 377.062 165.618 377.792 157.584C378.17 153.427 378.598 149.561 378.94 146.62C379.099 145.252 379.239 144.094 379.347 143.2C379.472 142.156 379.555 141.472 379.575 141.233C379.613 140.769 380.017 140.425 380.477 140.464Z" fill="#1B3C87"/>
<path fill-rule="evenodd" clip-rule="evenodd" d="M334.529 141.472C334.945 141.27 335.449 141.438 335.655 141.846C340.402 151.263 348.45 157.317 357.448 157.317C361.52 157.317 365.383 156.086 368.838 153.865C369.226 153.616 369.748 153.722 370.002 154.102C370.257 154.482 370.149 154.993 369.761 155.243C366.058 157.622 361.878 158.964 357.448 158.964C347.614 158.964 339.079 152.359 334.147 142.575C333.941 142.167 334.112 141.673 334.529 141.472Z" fill="#1B3C87"/>
<path fill-rule="evenodd" clip-rule="evenodd" d="M339.611 96.979C334.462 103.444 331.25 112.415 331.25 122.361L331.25 122.362C331.247 125.304 331.534 128.239 332.107 131.131C332.198 131.592 331.873 132.035 331.38 132.12C330.887 132.206 330.414 131.901 330.322 131.441C329.729 128.446 329.432 125.407 329.435 122.361" fill="#1B3C87"/>
<path fill-rule="evenodd" clip-rule="evenodd" d="M384.039 145.073C387.038 145.617 392.106 129.42 393.141 119.65C394.982 102.246 376.723 80.1035 363.083 78.7344C360.405 78.4659 357.381 81.2206 359.023 85.8303C355.716 82.3614 347.044 77.7739 339.554 76.811C328.176 75.3498 322.678 82.9086 322.678 86.2759C322.678 89.6431 324.721 100.183 328.804 103.439C325.504 103.398 322.568 103.701 322.201 106.372C321.069 114.61 325.74 122.052 333.643 121.292C334.194 116.651 335.188 112.159 336.814 109.136C338.135 121.029 368.38 117.043 368.322 119.028C368.093 126.677 377.173 126.678 377.488 126.866C384.501 131.071 379.257 144.205 384.039 145.073Z" fill="#E45858"/>
<path fill-rule="evenodd" clip-rule="evenodd" d="M319.982 84.9622C320.436 84.8916 320.862 85.2013 320.933 85.654C321.281 87.8769 321.931 90.6839 322.878 93.2335C323.838 95.8172 325.053 97.995 326.455 99.11C326.733 99.3311 326.839 99.7037 326.72 100.037C326.6 100.371 326.281 100.592 325.925 100.588C324.274 100.567 322.845 100.639 321.801 100.992C321.293 101.164 320.92 101.389 320.661 101.665C320.41 101.931 320.225 102.287 320.155 102.797C319.215 109.626 322.444 115.548 327.838 116.614C328.289 116.703 328.582 117.14 328.493 117.589C328.403 118.039 327.965 118.331 327.514 118.242C320.926 116.939 317.497 109.894 318.506 102.571L318.506 102.571C318.619 101.749 318.94 101.068 319.446 100.53C319.945 100 320.581 99.6528 321.266 99.4213C322.082 99.1452 323.027 99.0153 324.013 98.9605C322.911 97.5478 322.021 95.7032 321.317 93.8097C320.323 91.1353 319.649 88.2174 319.288 85.9097C319.217 85.457 319.528 85.0328 319.982 84.9622Z" fill="#1B3C87"/>
<path fill-rule="evenodd" clip-rule="evenodd" d="M324.287 74.4106C327.248 72.6287 331.318 71.538 336.493 72.191L336.494 72.1911C340.404 72.6869 344.588 74.1098 348.209 75.8381C350.744 77.0482 353.045 78.4281 354.804 79.7788C354.755 78.3564 355.148 77.1313 355.846 76.1738C356.913 74.7095 358.647 73.9476 360.314 74.1127L360.314 74.1127C364.145 74.4923 368.238 76.3712 372.129 79.1847C376.03 82.0051 379.781 85.8038 382.933 90.1086C383.205 90.4811 383.12 91.0013 382.743 91.2704C382.366 91.5396 381.838 91.4558 381.566 91.0833C378.505 86.9027 374.875 83.2333 371.132 80.5272C367.381 77.8142 363.571 76.1081 360.146 75.7686M336.279 73.8418C331.467 73.2347 327.784 74.2549 325.165 75.8315C324.768 76.0708 324.249 75.9467 324.006 75.5543C323.764 75.1619 323.89 74.6498 324.287 74.4106M336.28 73.8419C339.96 74.3086 343.966 75.6617 347.475 77.3364C350.995 79.0165 353.928 80.9794 355.504 82.6127C355.778 82.8973 356.217 82.9536 356.556 82.7477C356.895 82.5419 357.042 82.1299 356.909 81.7598C356.154 79.667 356.505 78.1199 357.215 77.1456C357.943 76.1465 359.1 75.6651 360.146 75.7686" fill="#1B3C87"/>
<path fill-rule="evenodd" clip-rule="evenodd" d="M389.698 106.251C390.138 106.15 390.575 106.433 390.674 106.883C391.35 109.967 391.596 113.057 391.287 116.033C390.773 121.009 389.259 127.586 387.505 132.855C386.628 135.487 385.679 137.832 384.745 139.499C384.281 140.329 383.795 141.036 383.294 141.528C382.815 141.996 382.158 142.426 381.395 142.284L381.395 142.284C380.219 142.066 379.506 141.272 379.095 140.273C378.703 139.322 378.551 138.117 378.469 136.875C378.438 136.415 378.778 136.016 379.229 135.985C379.679 135.954 380.068 136.302 380.099 136.762C380.18 137.987 380.322 138.949 380.6 139.625C380.859 140.253 381.193 140.548 381.684 140.64C381.689 140.64 381.836 140.643 382.163 140.322C382.501 139.991 382.895 139.441 383.327 138.67C384.186 137.137 385.096 134.907 385.958 132.317C387.681 127.142 389.163 120.687 389.663 115.857L389.663 115.857C389.95 113.092 389.724 110.187 389.08 107.248C388.981 106.798 389.258 106.352 389.698 106.251Z" fill="#1B3C87"/>
<path fill-rule="evenodd" clip-rule="evenodd" d="M333.628 104.395C333.988 104.463 334.262 104.761 334.303 105.128C334.587 107.705 336.414 109.515 339.316 110.802C342.222 112.09 346.03 112.766 349.878 113.137C353.092 113.447 356.275 113.539 358.913 113.615C359.425 113.63 359.916 113.644 360.383 113.659C361.805 113.705 363.03 113.76 363.902 113.871C364.329 113.925 364.733 114 365.048 114.121C365.204 114.18 365.399 114.273 365.567 114.428C365.752 114.6 365.928 114.877 365.917 115.244C365.884 116.362 366.062 117.271 366.374 118.015C366.553 118.443 366.354 118.936 365.929 119.116C365.505 119.297 365.015 119.096 364.836 118.669C364.466 117.787 364.258 116.778 364.244 115.632C364.11 115.601 363.928 115.569 363.692 115.539C362.911 115.439 361.764 115.386 360.33 115.339C359.871 115.324 359.386 115.31 358.878 115.296C356.241 115.22 352.994 115.126 349.719 114.81C345.822 114.435 341.799 113.739 338.643 112.34C336.272 111.289 334.293 109.79 333.293 107.656C333.157 108.014 333.03 108.377 332.915 108.743C332.776 109.185 332.306 109.43 331.867 109.29C331.427 109.149 331.184 108.676 331.324 108.234C331.694 107.06 332.166 105.921 332.734 104.831C332.904 104.503 333.267 104.326 333.628 104.395ZM364.493 115.708C364.493 115.708 364.492 115.708 364.491 115.707C364.492 115.708 364.493 115.708 364.493 115.708ZM364.248 115.193C364.248 115.193 364.248 115.192 364.248 115.191L364.248 115.192C364.248 115.193 364.248 115.193 364.248 115.193Z" fill="#1B3C87"/>
<path fill-rule="evenodd" clip-rule="evenodd" d="M371.065 123.197C371.977 122.576 373.025 122.174 374.124 122.024C375.223 121.874 376.343 121.98 377.392 122.334C378.442 122.687 379.392 123.278 380.166 124.059C380.939 124.84 381.515 125.788 381.846 126.828C382.177 127.867 382.253 128.969 382.07 130.043C381.887 131.117 381.448 132.134 380.79 133.011C380.132 133.888 379.273 134.601 378.283 135.091C377.292 135.582 376.197 135.837 375.088 135.835C374.659 135.836 374.231 135.798 373.809 135.722" fill="white"/>
<path fill-rule="evenodd" clip-rule="evenodd" d="M376.617 121.236C375.754 120.923 374.834 120.829 373.931 120.962C373.028 121.095 372.167 121.451 371.418 122.001C371.049 122.272 370.542 122.175 370.286 121.785C370.03 121.394 370.121 120.858 370.49 120.587C371.449 119.883 372.551 119.428 373.707 119.258C374.863 119.088 376.041 119.208 377.145 119.608C378.249 120.009 379.248 120.679 380.062 121.564C380.876 122.448 381.481 123.523 381.829 124.702C382.177 125.88 382.258 127.128 382.065 128.346C381.873 129.563 381.411 130.715 380.719 131.709C380.027 132.703 379.124 133.511 378.082 134.067C377.04 134.623 375.889 134.912 374.722 134.91C374.272 134.911 373.823 134.868 373.381 134.783C372.939 134.698 372.646 134.251 372.726 133.783C372.806 133.315 373.229 133.005 373.672 133.09C374.018 133.157 374.369 133.19 374.721 133.189H374.723C375.635 133.191 376.534 132.965 377.348 132.531C378.163 132.096 378.868 131.465 379.409 130.689C379.95 129.912 380.31 129.012 380.461 128.061C380.611 127.11 380.548 126.135 380.276 125.215C380.004 124.294 379.531 123.455 378.896 122.763C378.26 122.072 377.479 121.549 376.617 121.236Z" fill="#1B3C87"/>
<path fill-rule="evenodd" clip-rule="evenodd" d="M290.44 218.174L339.611 226.029L327.721 300.512L278.551 292.656L290.44 218.174Z" fill="#D7CAF1"/>
<path fill-rule="evenodd" clip-rule="evenodd" d="M288.045 212.781C288.224 212.652 288.447 212.598 288.666 212.633L337.982 220.461C338.438 220.533 338.748 220.958 338.675 221.411L334.835 245.326C334.762 245.779 334.334 246.087 333.879 246.015C333.424 245.942 333.113 245.517 333.186 245.065L336.895 221.968L289.227 214.402L277.434 287.786C277.362 288.239 276.934 288.547 276.479 288.475C276.023 288.402 275.713 287.977 275.786 287.525L287.71 213.321C287.745 213.104 287.865 212.91 288.045 212.781Z" fill="#1B3C87"/>
<path fill-rule="evenodd" clip-rule="evenodd" d="M329.659 271.843C330.112 271.916 330.421 272.348 330.349 272.807L326.671 296.102C326.599 296.561 326.172 296.874 325.719 296.801L292.204 291.383C291.75 291.31 291.441 290.879 291.513 290.42C291.586 289.961 292.012 289.648 292.466 289.721L325.16 295.006L328.706 272.541C328.778 272.082 329.205 271.77 329.659 271.843Z" fill="#1B3C87"/>
<path fill-rule="evenodd" clip-rule="evenodd" d="M276.606 278.308C274.48 261.246 276.116 250.082 285.271 246.901C288.967 245.618 285.327 270.558 283.854 274.664C282.382 278.771 278.349 274.086 276.606 278.308Z" fill="white"/>
<path fill-rule="evenodd" clip-rule="evenodd" d="M286.831 244.621C286.977 245.046 286.762 245.512 286.35 245.662C280.755 247.706 277.927 250.489 276.592 253.068C275.252 255.658 275.363 258.14 275.817 259.677C275.945 260.108 275.709 260.564 275.291 260.695C274.873 260.826 274.431 260.583 274.303 260.153C273.741 258.252 273.634 255.317 275.195 252.301C276.761 249.276 279.955 246.267 285.821 244.125C286.233 243.974 286.685 244.197 286.831 244.621Z" fill="#1B3C87"/>
<path fill-rule="evenodd" clip-rule="evenodd" d="M286.828 254.798C286.985 255.222 286.754 255.688 286.312 255.839C280.318 257.882 277.289 260.665 275.858 263.245C274.422 265.834 274.541 268.317 275.027 269.854C275.164 270.285 274.911 270.741 274.463 270.872C274.015 271.003 273.541 270.76 273.405 270.329C272.803 268.429 272.689 265.493 274.362 262.477C276.039 259.452 279.461 256.443 285.746 254.302C286.187 254.151 286.672 254.373 286.828 254.798Z" fill="#1B3C87"/>
<path fill-rule="evenodd" clip-rule="evenodd" d="M286.831 264.049C286.977 264.474 286.762 264.94 286.35 265.09C280.755 267.133 277.927 269.917 276.592 272.496C275.252 275.085 275.363 277.568 275.817 279.106C275.945 279.536 275.709 279.992 275.291 280.123C274.872 280.254 274.43 280.011 274.303 279.581C273.741 277.68 273.634 274.745 275.195 271.729C276.761 268.703 279.954 265.695 285.821 263.553C286.233 263.403 286.685 263.625 286.831 264.049Z" fill="#1B3C87"/>
<path fill-rule="evenodd" clip-rule="evenodd" d="M370.93 121.392C371.169 121.77 371.084 122.29 370.739 122.553C369.89 123.2 369.226 124.1 368.825 125.148C368.662 125.572 368.217 125.772 367.831 125.593C367.444 125.415 367.262 124.926 367.425 124.501C367.937 123.162 368.787 122.01 369.873 121.182C370.218 120.919 370.691 121.013 370.93 121.392Z" fill="#1B3C87"/>
<path fill-rule="evenodd" clip-rule="evenodd" d="M355.408 233.483C355.593 233.055 356.085 232.86 356.507 233.047C356.851 233.2 357.332 233.52 357.885 233.921C358.459 234.337 359.172 234.889 360.002 235.552C361.663 236.879 363.818 238.674 366.312 240.779C368.345 242.494 370.6 244.412 373.001 246.455C376.506 249.436 380.32 252.681 384.201 255.94C390.736 261.425 397.429 266.921 403.075 271.197C405.899 273.335 408.451 275.16 410.584 276.523C412.743 277.903 414.392 278.755 415.436 279.025C419.843 280.164 424.627 278.538 428.898 275.635C433.156 272.74 436.758 268.669 438.743 265.205L438.744 265.205C439.192 264.424 439.519 263.304 439.717 261.87C439.78 261.408 440.202 261.085 440.658 261.15C441.114 261.214 441.432 261.642 441.369 262.104C441.157 263.641 440.788 265.006 440.185 266.056C438.071 269.745 434.292 274.004 429.826 277.04C425.373 280.068 420.09 281.973 415.024 280.665C413.7 280.322 411.854 279.334 409.694 277.954C407.508 276.557 404.917 274.703 402.077 272.553C396.396 268.251 389.677 262.732 383.138 257.243C379.258 253.985 375.429 250.729 371.918 247.741C369.517 245.699 367.265 243.783 365.246 242.079C362.753 239.976 360.612 238.193 358.97 236.881C358.148 236.225 357.458 235.691 356.914 235.297C356.35 234.887 356 234.669 355.838 234.597C355.416 234.41 355.223 233.911 355.408 233.483Z" fill="#1B3C87"/>
<path fill-rule="evenodd" clip-rule="evenodd" d="M433.523 221.943C433.922 221.76 434.385 221.953 434.558 222.374C434.953 223.334 435.775 226.142 436.698 229.849C437.627 233.582 438.674 238.292 439.514 243.096C439.592 243.547 439.31 243.981 438.883 244.064C438.457 244.147 438.047 243.849 437.968 243.398C437.137 238.642 436.099 233.973 435.178 230.272C434.25 226.544 433.455 223.861 433.116 223.037C432.943 222.616 433.125 222.127 433.523 221.943Z" fill="#1B3C87"/>
<path fill-rule="evenodd" clip-rule="evenodd" d="M357.365 217.673C358.799 218.721 359.962 220.376 360.84 222.677C360.996 223.085 360.768 223.534 360.331 223.679C359.894 223.824 359.413 223.611 359.258 223.203C358.446 221.077 357.433 219.714 356.329 218.908C355.244 218.114 354.009 217.812 352.63 217.91C349.791 218.111 346.377 220.007 342.853 222.876C342.503 223.161 341.973 223.127 341.668 222.801C341.363 222.474 341.399 221.979 341.749 221.694C345.314 218.791 349.084 216.588 352.503 216.345C354.252 216.222 355.914 216.612 357.365 217.673Z" fill="#1B3C87"/>
<path fill-rule="evenodd" clip-rule="evenodd" d="M350.428 223.957C351.253 223.791 352.051 223.694 352.691 223.733C353.165 223.763 353.521 224.112 353.486 224.513C353.451 224.914 353.039 225.215 352.565 225.186C352.187 225.162 351.591 225.22 350.826 225.374C350.077 225.524 349.223 225.756 348.352 226.045C346.591 226.628 344.855 227.414 343.807 228.175C343.447 228.437 342.903 228.402 342.594 228.096C342.285 227.791 342.326 227.332 342.687 227.07C343.942 226.159 345.879 225.3 347.724 224.689C348.655 224.38 349.587 224.126 350.428 223.957Z" fill="#1B3C87"/>
<path fill-rule="evenodd" clip-rule="evenodd" d="M349.688 230.311C351.061 229.724 352.493 229.249 353.654 229.277C354.083 229.287 354.423 229.667 354.413 230.125C354.404 230.584 354.049 230.948 353.62 230.938C352.799 230.918 351.622 231.274 350.263 231.855C348.954 232.414 347.58 233.135 346.349 233.78C346.326 233.792 346.303 233.804 346.28 233.816C345.895 234.018 345.43 233.848 345.241 233.436C345.053 233.024 345.212 232.526 345.597 232.324C345.627 232.308 345.657 232.292 345.688 232.276C346.903 231.639 348.323 230.894 349.688 230.311Z" fill="#1B3C87"/>
<path fill-rule="evenodd" clip-rule="evenodd" d="M399.189 179.201C421.207 171.607 442.377 219.867 441.341 224.927C440.304 229.986 405.648 240.189 401.653 236.994C397.658 233.799 386.437 183.6 399.189 179.201Z" fill="#6246EA"/>
<path fill-rule="evenodd" clip-rule="evenodd" d="M392.097 208.934C392.538 208.857 392.954 209.17 393.027 209.632C393.943 215.45 395.16 220.964 396.357 225.188C396.956 227.302 397.545 229.078 398.084 230.402C398.353 231.065 398.604 231.6 398.83 232.002C399.066 232.422 399.239 232.629 399.331 232.705C399.442 232.797 399.69 232.918 400.15 233.007C400.597 233.093 401.172 233.136 401.871 233.13C403.268 233.118 405.067 232.915 407.129 232.554C407.57 232.477 407.987 232.788 408.06 233.25C408.134 233.712 407.836 234.149 407.396 234.226C405.294 234.594 403.401 234.813 401.884 234.826C401.126 234.832 400.44 234.787 399.857 234.675C399.289 234.565 398.741 234.377 398.329 234.037L398.328 234.036C397.995 233.761 397.7 233.332 397.436 232.863C397.162 232.376 396.88 231.769 396.594 231.067C396.023 229.662 395.414 227.819 394.805 225.671C393.587 221.371 392.355 215.788 391.43 209.908C391.357 209.446 391.656 209.01 392.097 208.934Z" fill="#1B3C87"/>
<path fill-rule="evenodd" clip-rule="evenodd" d="M402.529 175.411C402.595 174.952 403.019 174.634 403.477 174.7C408.562 175.433 413.399 178.503 417.748 182.646C422.106 186.798 426.043 192.095 429.326 197.417C432.611 202.743 435.258 208.123 437.027 212.462C437.912 214.63 438.583 216.551 439.004 218.083C439.215 218.849 439.367 219.531 439.451 220.106C439.531 220.66 439.561 221.193 439.472 221.621C439.356 222.182 439.008 222.685 438.596 223.118C438.175 223.562 437.62 224.002 436.975 224.434C435.683 225.3 433.936 226.197 431.919 227.082C427.879 228.855 422.645 230.625 417.533 232.021C417.087 232.143 416.627 231.88 416.506 231.433C416.384 230.986 416.647 230.525 417.093 230.403C422.15 229.022 427.302 227.277 431.248 225.546C433.224 224.679 434.869 223.827 436.044 223.04C436.631 222.647 437.077 222.284 437.384 221.962C437.7 221.629 437.808 221.4 437.833 221.279C437.861 221.148 437.868 220.853 437.794 220.348C437.723 219.864 437.59 219.254 437.39 218.529C436.992 217.08 436.346 215.225 435.478 213.096C433.742 208.841 431.137 203.544 427.902 198.299C424.665 193.05 420.814 187.881 416.594 183.861C412.364 179.831 407.834 177.023 403.238 176.36C402.781 176.294 402.463 175.869 402.529 175.411Z" fill="#1B3C87"/>
<path fill-rule="evenodd" clip-rule="evenodd" d="M413.551 380.075L413.623 303.868L322.355 303.287L322.033 380.075H413.551Z" fill="#3C3744"/>
</svg>
